<svg xmlns="http://www.w3.org/2000/svg" xmlns:xlink="http://www.w3.org/1999/xlink" version="1.1"><metadata>Created by FontForge 20170731 at Wed Jun 5 20:06:37 2002 By Aleksey,,, Copyright (c) 1985, 1987, 1990, 2002 Adobe Systems Incorporated. All Rights Reserved. (c) 1981, 2002 Heidelberger Druckmaschinen AG. All rights reserved.</metadata><defs><font id="GlyphaLTStd" horiz-adv-x="556"><font-face x-height="522" ascent="716" bbox="-166 -207 1000 960" cap-height="716" descent="-284" font-family="Glypha LT Std" font-stretch="normal" font-weight="400" panose-1="2 6 5 3 3 5 5 2 2 4" underline-position="-205" underline-thickness="63" unicode-range="U+0020-FB02" units-per-em="1000"/><glyph d="M272 63v-63h-248v63h87v399h-89v60h89q0 38 1.5 58.5t11.5 49.5t31 50q50 51 154 51q83 0 130 -30t53 -107h-94q-10 71 -90 71q-68 0 -97 -41q-17 -24 -19 -91v-11h309v-459h85v-63h-246v63h80v399h-228v-399h80z" glyph-name="fi" horiz-adv-x="593" unicode="fi"/><glyph d="M419 63v592q-27 5 -96 5q-72 0 -101 -31t-29 -107h110v-60h-111v-399h80v-63h-248v63h87v399h-89v60h89q-1 113 49 161t165 48q94 0 147 -12q27 -6 27 -7q1 -1 1 -12v-637h84v-63h-246v63h81z" glyph-name="fl" horiz-adv-x="593" unicode="fl"/><glyph d="M0 0v700h500v-700h-500zM250 395l170 255h-340zM280 350l170 -255v510zM80 50h340l-170 255zM50 605v-510l170 255z" glyph-name=".notdef" horiz-adv-x="500"/><glyph glyph-name=".null" horiz-adv-x="0"/><glyph glyph-name="nonmarkingreturn" horiz-adv-x="333"/><glyph glyph-name="space" horiz-adv-x="278"/><glyph d="M164 168l-22 548h103l-17 -548h-64zM148 0v93h95v-93h-95z" glyph-name="exclam" horiz-adv-x="389" unicode="!"/><glyph d="M231 439h-51l-12 277h75zM99 439h-51l-12 277h75z" glyph-name="quotedbl" horiz-adv-x="280" unicode="&quot;"/><glyph d="M376 261l-36 -261h-47l36 261h-122l-36 -261h-47l35 261h-142v46h151l15 117h-139v47h147l34 245h47l-33 -245h121l35 245h46l-33 -245h131v-47h-140l-14 -117h129v-46h-138zM352 424h-121l-15 -117h121z" glyph-name="numbersign" unicode="#"/><glyph d="M306 312v-258q53 2 86 37q32 37 32 89t-31 81t-87 51zM259 416v247q-60 -2 -93.5 -32.5t-33.5 -89.5q0 -48 33 -75.5t88 -47.5zM259 725v98h47v-102q90 -17 116 -74v67h71v-197h-69q0 12 -2 17q-12 105 -116 125v-261l38 -14q82 -30 123 -70.5t41 -117.5q0 -97 -64 -154 q-58 -53 -138 -53v-103h-47v106q-80 13 -128 75q-4 4 -6 11v-78h-72v204h71q1 -57 39.5 -96.5t95.5 -50.5v272q-95 32 -140 63q-73 49 -73 147q0 85 62.5 135t150.5 51z" glyph-name="dollar" unicode="$"/><glyph d="M270 676q-75 0 -75 -135q0 -46 17 -80.5t59 -34.5q37 0 53.5 40t16.5 83q0 127 -71 127zM679 729l-409 -741h-61l411 741h59zM624 291q-74 0 -74 -136q0 -114 75 -114q19 0 34 13t22.5 33t11 39.5t3.5 37.5q0 127 -72 127zM478 170q0 72 38.5 122.5t108.5 50.5 q73 0 106.5 -50.5t33.5 -127.5q0 -73 -35.5 -125t-104.5 -52q-76 0 -111.5 51.5t-35.5 130.5zM124 555q0 72 38.5 123t108.5 51q72 0 106 -51.5t34 -127.5q0 -75 -37 -126.5t-109 -51.5q-71 0 -106 54t-35 129z" glyph-name="percent" horiz-adv-x="889" unicode="%"/><glyph d="M332 388l170 -196q33 72 40 166h-78v64h244v-64h-90q-16 -118 -40 -173q-3 -6 -11 -23t-14 -25l63 -71h107v-66h-163l-62 72q-38 -43 -95 -66.5t-116 -23.5q-105 0 -167.5 56.5t-62.5 159.5q0 69 40 125t106 83q-90 86 -90 167q0 34 15 68t40 54q48 36 126 36 q83 0 125 -38q49 -46 49 -114q0 -117 -136 -191zM451 127l-195 223q-108 -59 -108 -154q0 -62 43 -108q34 -38 94 -38q45 0 91.5 21.5t74.5 55.5zM285 439q40 22 69.5 59t29.5 78q0 44 -24 68.5t-67 24.5q-40 0 -65 -25t-25 -66q0 -16 4 -31t16 -32.5t17.5 -24.5t24 -28 t20.5 -23z" glyph-name="ampersand" horiz-adv-x="778" unicode="&amp;"/><glyph d="M95 439h-51l-12 277h75z" glyph-name="quotesingle" horiz-adv-x="140" unicode="'"/><glyph d="M203 731h75q-137 -197 -137 -468q0 -97 29.5 -214.5t77.5 -191.5q20 -32 31 -47h-76q-147 212 -147 459q0 245 147 462z" glyph-name="parenleft" horiz-adv-x="333" unicode="("/><glyph d="M120 -190h-75q137 197 137 467q0 113 -35 237t-97 209q-1 1 -6 8h76q147 -214 147 -460q0 -244 -147 -461z" glyph-name="parenright" horiz-adv-x="333" unicode=")"/><glyph d="M203 573l-20 143h80l-18 -143l118 59l22 -76l-130 -24l89 -108l-65 -44l-56 128l-62 -128l-64 49l93 103l-129 28l26 77z" glyph-name="asterisk" horiz-adv-x="444" unicode="*"/><glyph d="M71 388h223v223h62v-223h223v-61h-223v-223h-62v223h-223v61z" glyph-name="plus" horiz-adv-x="660" unicode="+"/><glyph d="M84 0v101h102v-101l-44 -141h-58l47 141h-47z" glyph-name="comma" horiz-adv-x="278" unicode=","/><glyph d="M49 240v73h236v-73h-236z" glyph-name="hyphen" horiz-adv-x="333" unicode="-"/><glyph d="M87 0v101h102v-101h-102z" glyph-name="period" horiz-adv-x="278" unicode="."/><glyph d="M286 731h70l-284 -731h-71z" glyph-name="slash" horiz-adv-x="352" unicode="/"/><glyph d="M274 -12q-124 0 -188 133q-38 82 -38 219q0 7 0.5 21.5t0.5 22.5q6 153 48 233q26 52 75.5 82t107.5 30q47 0 84.5 -16t61.5 -44.5t41 -63t25.5 -77.5t12 -81t3.5 -80q0 -379 -234 -379zM140 343q0 -288 139 -288q29 0 52 14t36 32t23.5 49.5t14 51t8.5 52.5q5 34 5 80 q0 102 -8 152q-15 81 -33 114q-38 64 -94 64q-29 0 -52.5 -13.5t-38 -32.5t-25 -50.5t-16 -57t-8 -62t-3 -56.5t-0.5 -49z" glyph-name="zero" unicode="0"/><glyph d="M104 488v91q10 8 39 31.5t43 35.5t35.5 32t37.5 38h91v-650h101v-66h-296v66h108v562l-13 -15q-69 -75 -146 -125z" glyph-name="one" unicode="1"/><glyph d="M492 184v-184h-443v94v6q0 7 5 12l2 2q16 16 24 23q40 38 117 115q44 44 65 66q20 21 56 65q30 34 45 58q26 40 26 90q0 58 -31 93.5t-88 35.5q-60 0 -93 -43.5t-31 -104.5h-92q2 25 12 75q7 32 29.5 63.5t50.5 47.5q53 31 124 31q49 0 84 -9.5t67 -37.5q28 -24 44 -60 t16 -73q0 -64 -22 -107.5t-73 -101.5q-10 -11 -30.5 -33t-30.5 -33q-55 -60 -114 -117l-36 -33q-38 -36 -57 -55h295v115h79z" glyph-name="two" unicode="2"/><glyph d="M53 200h93q1 -59 32 -100.5t88 -41.5q63 0 100 37.5t37 100.5q0 71 -50 107q-35 27 -112 29v67q70 -2 113 31.5t43 101.5q0 56 -33 92.5t-89 36.5q-54 0 -84 -31q-33 -35 -38 -76q-1 -9 -1 -28h-92q1 94 62.5 148.5t157.5 54.5q47 0 80 -11q60 -21 93 -68t33 -110 q0 -73 -38.5 -118t-110.5 -58q73 -7 114 -53.5t41 -120.5q0 -97 -61.5 -149.5t-159.5 -52.5q-102 0 -160 55.5t-58 156.5z" glyph-name="three" unicode="3"/><glyph d="M332 191h-304v96l280 429h106v-460h100v-65h-100v-125h91v-66h-282v66h109v125zM90 256h242v379z" glyph-name="four" unicode="4"/><glyph d="M72 190h89q-3 -52 32 -93t87 -41q68 0 103.5 46.5t35.5 116.5q0 78 -28 118q-38 53 -102 53q-43 0 -79 -26.5t-49 -69.5h-85l14 422h387v-70h-307l-13 -277q17 44 57.5 66t91.5 22q98 0 152 -71q48 -62 48 -158q0 -152 -110 -215q-19 -11 -53.5 -18t-58.5 -7 q-97 0 -155 53t-57 149z" glyph-name="five" unicode="5"/><glyph d="M492 546h-87q-3 50 -25.5 83.5t-70.5 33.5q-44 0 -76.5 -23.5t-50 -62.5t-25.5 -77.5t-11 -81.5q-2 -54 -2 -80q16 51 63 84t102 33q97 0 145 -65.5t48 -165.5q0 -105 -57 -170.5t-161 -65.5q-226 0 -226 349q0 392 249 392q87 0 134 -48t51 -135zM297 388 q-67 0 -104 -49.5t-37 -119.5q0 -67 34 -116.5t98 -49.5q65 0 96.5 52t31.5 121q0 63 -30 112.5t-89 49.5z" glyph-name="six" unicode="6"/><glyph d="M56 520v196h457v-77l-65 -141q-107 -232 -188 -498h-94l56 162q14 40 31.5 85t30.5 76t38 86t34 74.5t40.5 85t36.5 76.5h-296v-125h-81z" glyph-name="seven" unicode="7"/><glyph d="M348 370q18 -2 54 -16q47 -16 72 -61.5t25 -100.5q0 -95 -60.5 -149.5t-157.5 -54.5q-103 0 -163.5 51.5t-60.5 152.5q0 25 14 75q12 41 51.5 68t85.5 34q-64 9 -102.5 55t-38.5 111q0 93 58.5 143.5t152.5 50.5t153.5 -47.5t59.5 -138.5q0 -147 -143 -173zM277 666 q-59 0 -97 -44q-29 -33 -29 -95q0 -55 36.5 -91.5t91.5 -36.5q56 0 91.5 39.5t35.5 96.5q0 61 -34 96t-95 35zM145 199q0 -62 33 -104t94 -42q68 0 103.5 39.5t35.5 108.5q0 63 -35.5 101t-98.5 38q-61 0 -96.5 -39.5t-35.5 -101.5z" glyph-name="eight" unicode="8"/><glyph d="M65 170h87q2 -52 27.5 -84t75.5 -32q51 0 85.5 34.5t49 90.5t19.5 103.5t4 95.5q-17 -51 -64 -84t-101 -33q-96 0 -145 65.5t-49 165.5q0 105 56 171t160 66q73 0 118.5 -31t75.5 -99q35 -79 35 -220q0 -391 -249 -391q-87 0 -134.5 48t-50.5 134zM265 328q30 0 58 15.5 t46 40.5q31 44 31 107q0 79 -30 118q-40 54 -95 54q-68 0 -101 -50t-33 -122q0 -66 30.5 -114.5t93.5 -48.5z" glyph-name="nine" unicode="9"/><glyph d="M244 501v-101h-102v101h102zM142 0v101h102v-101h-102z" glyph-name="colon" horiz-adv-x="389" unicode=":"/><glyph d="M140 0v101h102v-101l-43 -141h-59l46 141h-46zM140 400v101h102v-101h-102z" glyph-name="semicolon" horiz-adv-x="389" unicode=";"/><glyph d="M595 146v-63l-540 246v58l540 248v-63l-470 -215z" glyph-name="less" horiz-adv-x="660" unicode="&lt;"/><glyph d="M76 463h508v-62h-508v62zM76 313h508v-61h-508v61z" glyph-name="equal" horiz-adv-x="660" unicode="="/><glyph d="M55 146l470 211l-470 215v63l540 -248v-58l-540 -246v63z" glyph-name="greater" horiz-adv-x="660" unicode="&gt;"/><glyph d="M265 165h-88q0 33 5 71q5 36 11 51.5t27 45.5q9 14 48.5 51t43.5 41q47 50 47 115q0 52 -30 86t-82 34q-55 0 -85.5 -35.5t-31.5 -91.5h-91q3 98 59 146t155 48q87 0 142 -51.5t55 -138.5q0 -101 -94 -180q-23 -20 -40 -38q-25 -27 -34 -45t-15 -54q-2 -13 -2 -55z M174 93h93v-93h-93v93z" glyph-name="question" horiz-adv-x="500" unicode="?"/><glyph d="M762 150l19 -29q-54 -67 -133.5 -101t-171.5 -34q-75 0 -151.5 26.5t-131.5 72.5q-58 50 -89.5 122t-31.5 150q0 156 119.5 266t281.5 110q142 0 244.5 -86.5t102.5 -220.5q0 -105 -54 -175q-30 -39 -75 -65t-92 -26q-59 0 -62 60q-56 -65 -140 -65q-67 0 -109 50 t-42 117q0 94 69.5 170.5t164.5 76.5q41 0 74 -21t45 -58l16 49h47l-75 -256q-11 -35 -11 -51q0 -34 37 -34q28 0 59.5 19t51.5 43q57 62 57 164q0 112 -87 191q-90 80 -224 80q-141 0 -247 -95q-108 -99 -108 -243q0 -147 103.5 -240t257.5 -93q82 0 159 33t127 93z M408 199q50 0 90 34q28 25 48 78q31 90 31 128q0 40 -28 64t-70 24q-77 0 -130.5 -66t-53.5 -142q0 -51 30.5 -85.5t82.5 -34.5z" glyph-name="at" horiz-adv-x="900" unicode="@"/><glyph d="M263 304h240l-119 334zM84 66l253 650h102l249 -650h72v-66h-266v66h99l-62 172h-296l-61 -172h98v-66h-262v66h74z" glyph-name="A" horiz-adv-x="778" unicode="A"/><glyph d="M363 0h-334v66h101v584h-100v66h334q36 0 57 -1.5t49.5 -10.5t50.5 -26q29 -23 44 -61.5t15 -78.5q0 -65 -36 -110.5t-100 -52.5q72 -5 113 -53t41 -121q0 -102 -75 -159q-34 -26 -70.5 -34t-89.5 -8zM217 399h105q85 0 120 26q50 37 50 109q0 74 -49 100q-29 16 -112 16 h-114v-251zM346 334h-129v-268h118q85 0 124 33q49 41 49 106q0 32 -12 63t-36 46q-17 10 -39.5 15t-32.5 5h-42z" glyph-name="B" horiz-adv-x="667" unicode="B"/><glyph d="M660 462h-78q-5 90 -54.5 142.5t-137.5 52.5q-63 0 -109.5 -23.5t-73 -65t-39 -92t-12.5 -110.5q0 -48 6.5 -90.5t22.5 -83t41 -69t65.5 -46t92.5 -17.5q83 0 132.5 49t54.5 132h92q-4 -120 -81 -186.5t-199 -66.5q-161 0 -248 109q-38 48 -57 119.5t-19 141.5 q0 158 74 254q89 115 247 115q157 0 208 -115v104h72v-254z" glyph-name="C" horiz-adv-x="722" unicode="C"/><glyph d="M311 650h-98v-584h76q74 0 125.5 14t93.5 57q36 37 54 94t18 116q0 69 -17 127.5t-61.5 106.5t-110.5 61q-42 8 -80 8zM281 0h-256v66h101v584h-101v66h278q79 0 121 -8q127 -24 190 -128q56 -93 56 -217q0 -149 -65 -241q-39 -54 -89.5 -81t-121.5 -37q-34 -4 -113 -4z" glyph-name="D" horiz-adv-x="722" unicode="D"/><glyph d="M601 0h-572v66h102v584h-102v66h572v-214h-78v148h-305v-253h148v109h72v-282h-72v107h-148v-265h305v157h78v-223z" glyph-name="E" horiz-adv-x="667" unicode="E"/><glyph d="M328 0h-307v66h101v584h-101v66h550v-217h-76v151h-286v-266h143v105h70v-279h-70v108h-143v-252h119v-66z" glyph-name="F" horiz-adv-x="611" unicode="F"/><glyph d="M654 462h-79q-1 89 -55.5 142.5t-143.5 53.5q-61 0 -106 -27t-69 -73t-35.5 -97.5t-11.5 -108.5q0 -56 12 -106t36.5 -93.5t69 -69t104.5 -25.5q93 0 150 68t55 163h-110v65h281v-65h-90v-289h-82v110q-22 -61 -84 -91.5t-133 -30.5q-150 0 -243 122q-29 38 -45.5 108.5 t-16.5 133.5q0 177 80 272q87 103 239 103q63 0 116.5 -26t81.5 -77v92h79v-254z" glyph-name="G" horiz-adv-x="778" unicode="G"/><glyph d="M318 0h-287v66h100v584h-100v66h287v-66h-100v-253h342v253h-101v66h288v-66h-100v-584h100v-66h-288v66h101v260h-342v-260h100v-66z" glyph-name="H" horiz-adv-x="778" unicode="H"/><glyph d="M23 650v66h288v-66h-101v-584h101v-66h-288v66h100v584h-100z" glyph-name="I" horiz-adv-x="333" unicode="I"/><glyph d="M20 213v8h92q-4 -163 106 -163q63 0 89 65q12 31 12 117v410h-105v66h271v-66h-79v-403q0 -91 -7 -124q-17 -70 -73 -106q-20 -12 -54.5 -20t-60.5 -8q-104 0 -153 64q-38 50 -38 160z" glyph-name="J" horiz-adv-x="500" unicode="J"/><glyph d="M317 0h-287v66h102v584h-102v66h287v-66h-98v-269h1l257 269h-87v66h248v-66h-50l-264 -270l269 -314h67v-66h-264v66h87l-263 313h-1v-313h98v-66z" glyph-name="K" horiz-adv-x="667" unicode="K"/><glyph d="M572 0h-543v66h103v584h-103v66h310v-66h-120v-578h272v162h81v-234z" glyph-name="L" horiz-adv-x="611" unicode="L"/><glyph d="M302 0h-272v66h103v584h-103v66h255l185 -612l191 612h252v-66h-102v-584h102v-66h-278v66h92v584h-7l-213 -650h-78l-213 650h-7v-584h93v-66z" glyph-name="M" horiz-adv-x="944" unicode="M"/><glyph d="M309 0h-280v66h101v584h-101v66h230l316 -623v557h-100v66h276v-66h-98v-650h-121l-326 641v-575h103v-66z" glyph-name="N" horiz-adv-x="778" unicode="N"/><glyph d="M396 -12q-159 0 -249 100.5t-90 259.5q0 170 84 272q87 107 252 107q161 0 251 -111q77 -94 77 -263q0 -77 -20 -141q-26 -77 -60 -120q-85 -104 -245 -104zM390 662q-63 0 -110.5 -26t-74 -70t-39.5 -96t-13 -111q0 -142 52 -211q69 -95 190 -95q117 0 183 101 q49 78 49 203q0 59 -12.5 111.5t-39 97t-74 70.5t-111.5 26z" glyph-name="O" horiz-adv-x="778" unicode="O"/><glyph d="M316 650h-98v-290h108q29 0 45 1t38.5 9t38.5 24q38 37 38 109q0 86 -48 119q-17 13 -40 19.5t-38 7.5t-44 1zM338 0h-309v66h102v584h-102v66h315q60 0 94 -8q69 -17 103 -72.5t34 -131.5q0 -106 -71 -169q-23 -20 -56 -30t-50.5 -10.5t-63.5 -0.5h-116v-228h120v-66z" glyph-name="P" horiz-adv-x="611" unicode="P"/><glyph d="M674 64h81v-67h-256q-21 0 -63 -4q-35 -5 -64 -5q-166 0 -257 112q-39 49 -59.5 118.5t-20.5 138.5q0 155 91.5 262.5t245.5 107.5q158 0 248 -113q79 -102 79 -254q0 -56 -14.5 -115.5t-49.5 -114.5t-83 -76q47 7 57 8q44 2 65 2zM369 657q-61 0 -108.5 -27t-75 -72.5 t-41 -98.5t-13.5 -111q0 -44 15 -102q23 -93 91 -149q49 -41 131 -41q48 0 87.5 18.5t66.5 48.5t45.5 70.5t27 83t8.5 86.5q0 120 -59.5 207t-174.5 87z" glyph-name="Q" horiz-adv-x="778" unicode="Q"/><glyph d="M334 650h-123v-268h95q97 0 132 27q46 35 46 111q0 72 -42 107q-28 23 -108 23zM308 0h-286v66h102v584h-102v66h300q44 0 63 -0.5t55 -7.5t59 -22q35 -24 54 -65.5t19 -87.5q0 -79 -37.5 -131t-113.5 -58q56 -13 74 -35.5t35 -82.5l45 -160h77v-66h-147l-60 211 q-21 74 -60 93q-23 11 -76 11h-98v-249h97v-66z" glyph-name="R" horiz-adv-x="667" unicode="R"/><glyph d="M497 482h-77q-2 87 -37 133.5t-117 46.5q-55 0 -91.5 -32.5t-36.5 -86.5q0 -48 36 -81q12 -11 79 -37l91 -35q28 -10 36 -13.5t28 -12.5t33 -18.5t26 -23.5q46 -49 46 -129q0 -56 -25 -102q-56 -103 -194 -103q-59 0 -105.5 25.5t-65.5 77.5v-91h-76v242h76 q2 -83 42.5 -134.5t120.5 -51.5q67 0 102 36q34 37 34 92q0 51 -24.5 75t-78.5 46l-115 45q-81 32 -119.5 69.5t-38.5 112.5q0 74 34 116q36 44 77.5 61.5t101.5 17.5q116 0 161 -79v68h77v-234z" glyph-name="S" unicode="S"/><glyph d="M38 487v229h580v-229h-80v153h-166v-574h111v-66h-308v66h110v574h-167v-153h-80z" glyph-name="T" horiz-adv-x="667" unicode="T"/><glyph d="M14 716h283v-66h-107v-374q0 -107 39 -158q44 -58 133 -58q46 0 86.5 21t61.5 60q14 25 20.5 55t7.5 50t1 58v346h-105v66h271v-66h-89v-367q0 -101 -23 -152q-15 -31 -43.5 -63t-56.5 -47q-62 -32 -136 -32q-58 0 -112 22.5t-89 65.5q-35 41 -44.5 86t-9.5 114v373h-88 v66z" glyph-name="U" horiz-adv-x="722" unicode="U"/><glyph d="M648 650l-241 -650h-99l-236 650h-58v66h258v-66h-105l194 -561l198 561h-104v66h251v-66h-58z" glyph-name="V" horiz-adv-x="722" unicode="V"/><glyph d="M14 650v66h249v-66h-103l120 -564l162 630h125l155 -635l124 569h-103v66h242v-66h-57l-150 -650h-117l-159 652h-7l-159 -652h-118l-146 650h-58z" glyph-name="W" horiz-adv-x="1000" unicode="W"/><glyph d="M296 0h-280v66h71l224 309l-195 275h-75v66h278v-66h-94l147 -208l149 208h-94v66h270v-66h-75l-194 -270l219 -314h67v-66h-282v66h105l-171 245l-180 -245h110v-66z" glyph-name="X" horiz-adv-x="722" unicode="X"/><glyph d="M486 0h-309v66h111v227l-221 357h-55v66h254v-66h-99l170 -280l169 280h-94v66h244v-66h-56l-225 -357v-227h111v-66z" glyph-name="Y" horiz-adv-x="667" unicode="Y"/><glyph d="M569 0h-531v91l424 557h-337v-144h-80v212h516v-83l-429 -564h360v150h77v-219z" glyph-name="Z" horiz-adv-x="611" unicode="Z"/><glyph d="M252 -190h-152v921h152v-56h-76v-809h76v-56z" glyph-name="bracketleft" horiz-adv-x="333" unicode="["/><glyph d="M381 0l-300 731h69l298 -731h-67z" glyph-name="backslash" horiz-adv-x="580" unicode="\"/><glyph d="M229 731v-921h-153v56h77v809h-77v56h153z" glyph-name="bracketright" horiz-adv-x="333" unicode="]"/><glyph d="M116 176h-61l246 540h56l248 -540h-62l-215 468z" glyph-name="asciicircum" horiz-adv-x="660" unicode="^"/><glyph d="M500 -112h-500v63h500v-63z" glyph-name="underscore" horiz-adv-x="500" unicode="_"/><glyph d="M150 600l-137 138h77l111 -138h-51z" glyph-name="grave" horiz-adv-x="278" unicode="`"/><glyph d="M383 0v103q-26 -58 -66.5 -84t-104.5 -26q-60 0 -104 27.5t-58 82.5q-5 21 -5 49q0 82 56.5 122t142.5 40q10 0 29 0.5t28 0.5h82v48q-3 31 -9.5 49.5t-25.5 37.5q-28 28 -77 28q-37 0 -60 -8t-44 -34q-16 -19 -20 -62h-84q6 117 113 153q32 11 89 11q86 0 143 -45 q50 -39 50 -130v-300h83v-63h-158zM131 150q0 -44 24 -71t67 -27q83 0 120.5 57t40.5 144q-25 4 -80 4q-30 0 -49 -1t-45 -7t-41 -16.5t-26 -31.5t-11 -51z" glyph-name="a" unicode="a"/><glyph d="M185 716v-285q23 48 70 77.5t100 29.5q110 0 165 -76.5t55 -190.5q0 -53 -7 -92t-33 -88q-24 -45 -75 -71.5t-113 -26.5q-52 0 -96 26t-65 72l-1 12v-103h-164v63h83v594h-82v59h163zM336 57q77 0 116 58.5t39 139.5q0 55 -12.5 101.5t-48.5 82.5t-92 36t-102 -46 q-31 -31 -47 -91q-7 -27 -7 -71q0 -90 32 -146q36 -64 122 -64z" glyph-name="b" horiz-adv-x="611" unicode="b"/><glyph d="M472 330h-63q0 57 -36.5 99.5t-91.5 42.5q-78 0 -116.5 -60t-38.5 -142q0 -84 37 -145q41 -67 117 -67q49 0 83 34.5t39 84.5h76q-1 -84 -61 -134t-145 -50q-109 0 -172 75.5t-63 187.5q0 120 60 201q28 37 71 59t92 22q99 0 149 -81v65h63v-192z" glyph-name="c" horiz-adv-x="500" unicode="c"/><glyph d="M432 0v104q-20 -54 -65.5 -82.5t-106.5 -28.5q-54 0 -102.5 28t-79.5 83q-34 60 -34 166q0 113 55 190.5t163 77.5q111 0 165 -91q1 -2 3 -5t2 -5v220h-86v59h167v-653h84v-63h-165zM282 54q39 0 72.5 20t51.5 54q26 51 26 140q0 81 -34.5 143.5t-108.5 64.5 q-42 0 -71.5 -16t-53.5 -51q-35 -51 -35 -131q0 -62 11 -102q35 -122 142 -122z" glyph-name="d" horiz-adv-x="611" unicode="d"/><glyph d="M520 259v-14h-385q5 -92 46 -140q25 -30 52.5 -40.5t71.5 -10.5q48 0 87 31.5t44 77.5h77q-14 -82 -74 -126t-148 -44q-122 0 -181 72.5t-59 196.5q0 96 39 164q29 52 84.5 82t118.5 30q85 0 142 -46q58 -48 74 -129q11 -52 11 -104zM139 305h295q-1 69 -38.5 121 t-104.5 52q-68 0 -107.5 -51.5t-44.5 -121.5z" glyph-name="e" unicode="e"/><glyph d="M289 0h-268v63h88v399h-92v60h92v27q0 72 10 98q9 24 29 43q42 41 123 41q41 0 82 -9v-68q-50 8 -74 8q-56 0 -76 -32q-13 -21 -13 -89v-19h111v-60h-111v-399h99v-63z" glyph-name="f" horiz-adv-x="333" unicode="f"/><glyph d="M67 -51h90q15 -80 127 -80q39 0 74.5 15t52.5 45q21 37 23 131v32q-35 -54 -75 -76.5t-102 -22.5q-105 0 -162.5 77t-57.5 187q0 115 39 182q28 48 79 73.5t103 25.5q125 0 177 -99v83h166v-59h-86v-412q0 -66 -11 -107.5t-50 -80.5q-29 -27 -76.5 -41t-92.5 -14 q-201 0 -218 141zM274 55q75 0 124 67q36 47 36 130q0 50 -7 83t-29 68q-19 30 -51 48t-66 18q-56 0 -92.5 -32.5t-50.5 -77.5t-14 -100q0 -87 37 -141q45 -63 113 -63z" glyph-name="g" horiz-adv-x="611" unicode="g"/><glyph d="M280 0h-251v63h84v594h-84v59h165v-263q62 85 162 85q86 0 129 -53q22 -26 28 -55t6 -73v-294h86v-63h-253v63h86v268q0 28 -1 40.5t-5 36t-16.5 38t-32.5 23.5q-21 9 -44 9q-43 0 -74 -18q-44 -26 -57.5 -67.5t-13.5 -103.5v-226h86v-63z" glyph-name="h" horiz-adv-x="611" unicode="h"/><glyph d="M280 63v-63h-246v63h84v400h-83v59h164v-459h81zM112 716h93v-84h-93v84z" glyph-name="i" horiz-adv-x="296" unicode="i"/><glyph d="M0 -168v65q12 -2 17 -4q20 -4 46.5 -0.5t38.5 21.5q11 21 11 83v466h-86v59h167v-518q0 -99 -18 -131q-14 -24 -45 -36t-63 -12q-42 0 -68 7zM200 632h-92v84h92v-84z" glyph-name="j" horiz-adv-x="278" unicode="j"/><glyph d="M263 0h-238v63h84v594h-84v59h165v-451l187 198h-76v59h234v-59h-70l-125 -132l150 -268h54v-63h-211v63h64l-116 217l-91 -91v-126h73v-63z" glyph-name="k" unicode="k"/><glyph d="M265 0h-244v63h83v594h-83v59h164v-653h80v-63z" glyph-name="l" horiz-adv-x="278" unicode="l"/><glyph d="M196 522v-94q12 50 52 80t94 30q59 0 96.5 -29t52.5 -81q10 49 52.5 79.5t94.5 30.5q61 0 104.5 -30.5t52.5 -79.5q7 -37 7 -82v-283h76v-63h-239v63h82v261q0 29 -0.5 44t-6 39t-15 36.5t-29.5 22t-49 9.5q-73 0 -107 -73q-15 -35 -15 -120v-219h81v-63h-243v63h81v261 q0 29 -0.5 44t-6 39t-15 36.5t-29.5 22t-49 9.5q-72 0 -106 -73q-16 -35 -16 -120v-219h82v-63h-248v63h85v400h-85v59h166z" glyph-name="m" horiz-adv-x="889" unicode="m"/><glyph d="M193 522v-94q20 57 58 83.5t100 26.5q122 0 158 -110q4 -23 4 -67v-298h82v-63h-245v63h82v270q0 142 -103 142q-43 0 -71 -18q-26 -17 -44 -51q-21 -41 -21 -134v-209h82v-63h-250v63h87v400h-85v59h166z" glyph-name="n" horiz-adv-x="611" unicode="n"/><glyph d="M123 267q0 -98 36 -146q47 -67 121 -67q37 0 72 22.5t53 56.5q29 54 29 137q0 86 -36 146t-118 60q-81 0 -128 -74q-29 -50 -29 -135zM37 268q0 122 65 194q69 76 183 76q117 0 177 -77.5t60 -196.5q0 -116 -63 -193.5t-178 -77.5q-125 0 -187 88q-57 81 -57 187z" glyph-name="o" unicode="o"/><glyph d="M185 522v-102q30 61 72.5 89.5t108.5 28.5q64 0 104 -27t77 -91q28 -49 28 -153q0 -123 -48 -186q-67 -88 -162 -88q-128 0 -180 104v-199h84v-60h-249v60h84v565h-82v59h163zM344 477q-85 0 -128 -74q-31 -51 -31 -136q0 -92 33 -145q43 -69 119 -69q53 0 89.5 32 t51 76.5t14.5 96.5q0 94 -34 152q-17 31 -48 49t-66 18z" glyph-name="p" horiz-adv-x="611" unicode="p"/><glyph d="M427 -102v200q-19 -33 -28 -42q-30 -37 -64.5 -50t-86.5 -13q-18 0 -53 7q-34 6 -70 38.5t-54 66.5q-34 64 -34 162t31 159q58 112 181 112q131 0 178 -112v96h163v-59h-82v-565h85v-60h-249v60h83zM275 477q-56 0 -92.5 -33.5t-49.5 -79t-13 -100.5q0 -88 39.5 -149.5 t122.5 -61.5q34 0 67.5 23t50.5 55q27 50 27 142q0 35 -7 70q-11 55 -51 94.5t-94 39.5z" glyph-name="q" horiz-adv-x="611" unicode="q"/><glyph d="M195 522v-104q24 67 55.5 90t102.5 23h21v-75q-22 4 -34 4q-145 0 -145 -198v-199h99v-63h-263v63h83v400h-83v59h164z" glyph-name="r" horiz-adv-x="389" unicode="r"/><glyph d="M438 354h-63q-3 46 -18 73.5t-55 40.5q-27 9 -51 9q-48 0 -79.5 -23.5t-31.5 -69.5q0 -32 21 -47q7 -5 15 -8.5t15 -6t17.5 -5t16 -3.5t18 -3t16.5 -3q43 -7 69.5 -14.5t56.5 -23.5t44.5 -44t14.5 -68q0 -54 -14 -75q-59 -90 -157 -90q-61 0 -95 19t-63 71v-83h-63v180 h63q10 -69 48 -97q39 -29 91 -29q45 0 75.5 25.5t30.5 69.5q0 16 -4 28t-13.5 20.5t-17 14t-23.5 9.5l-24 6t-27.5 4.5t-24.5 3.5q-38 6 -64.5 14t-52 24t-38 43t-12.5 65q0 64 23 89q62 68 159 68q94 0 134 -68v52h63v-168z" glyph-name="s" horiz-adv-x="500" unicode="s"/><glyph d="M178 654v-132h150v-59h-150v-338q0 -72 52 -72q18 0 29.5 10.5t16 30.5t5.5 33t1 33h65q0 -25 -1 -38q-4 -92 -69 -120q-41 -9 -54 -9t-49 6q-46 8 -68 64q-9 22 -9 94v306h-90v59h90v102z" glyph-name="t" horiz-adv-x="370" unicode="t"/><glyph d="M419 0v100q-19 -57 -54.5 -82t-98.5 -25q-59 0 -101 26t-56 81q-7 28 -7 102v261h-82v59h163v-320q0 -31 3.5 -53.5t13 -46.5t31 -36.5t53.5 -12.5q37 0 67.5 19.5t46.5 53.5q21 43 21 126v211h-88v59h169v-459h83v-63h-164z" glyph-name="u" horiz-adv-x="611" unicode="u"/><glyph d="M15 463v59h222v-59h-83l122 -394h7l124 394h-83v59h217v-59h-53l-158 -463h-103l-160 463h-52z" glyph-name="v" unicode="v"/><glyph d="M15 463v59h233v-59h-87l100 -389h7l123 448h114l125 -448h7l98 389h-87v59h227v-59h-59l-134 -463h-107l-125 457h-7l-127 -457h-107l-135 463h-59z" glyph-name="w" horiz-adv-x="889" unicode="w"/><glyph d="M27 463v59h222v-59h-73l113 -149l115 149h-79v59h213v-59h-51l-153 -200l158 -200h52v-63h-228v63h81l-120 152l-124 -152h87v-63h-223v63h50l166 208l-154 192h-52z" glyph-name="x" unicode="x"/><glyph d="M17 522h223v-59h-81l128 -366l124 366h-82v59h214v-59h-46l-172 -468q-18 -46 -32 -77q-23 -52 -54 -70q-35 -22 -80 -22q-14 0 -63 7v66q28 -7 60 -7q19 0 33.5 9.5t25.5 30t15 32t12 35.5l-175 464h-50v59z" glyph-name="y" unicode="y"/><glyph d="M451 0h-402v68l305 395h-227v-107h-71v166h391v-67l-306 -392h240v116h70v-179z" glyph-name="z" horiz-adv-x="500" unicode="z"/><glyph d="M182 136v-203q0 -52 16.5 -80t61.5 -43q-72 -2 -108 27q-37 30 -37 116v202q0 21 -1 31.5t-5.5 24.5t-14.5 27q-22 27 -58 36q27 4 51 24q14 12 20.5 29t7 28.5t0.5 36.5v179q0 93 30.5 128.5t114.5 31.5q-43 -13 -60.5 -42t-17.5 -80v-189q0 -64 -17 -98.5t-70 -47.5 q51 -13 69 -45t18 -93z" glyph-name="braceleft" horiz-adv-x="300" unicode="{"/><glyph d="M294 0v731h62v-731h-62z" glyph-name="bar" horiz-adv-x="660" unicode="|"/><glyph d="M114 419v190q0 51 -17 79.5t-60 42.5q84 4 114 -32t30 -129v-179q0 -25 1 -36t7.5 -28.5t20.5 -29.5q23 -19 50 -24q-36 -8 -58 -36q-10 -13 -15 -27t-5.5 -24t-0.5 -31v-202q0 -41 -6.5 -69t-29.5 -46q-16 -13 -35.5 -19.5t-33 -7.5t-39.5 -1q44 15 60.5 43t16.5 80v203 q0 60 18 92.5t69 44.5q-52 13 -69.5 48t-17.5 98z" glyph-name="braceright" horiz-adv-x="300" unicode="}"/><glyph d="M555 428l47 -30q-24 -33 -39.5 -51t-44 -34.5t-61.5 -16.5t-99 24l-53 20q-69 26 -94 26q-36 0 -59 -20.5t-48 -59.5l-47 30q34 53 69 81t87 28q43 0 127 -35q91 -35 115 -35q23 0 43 12t30.5 24.5t26.5 36.5z" glyph-name="asciitilde" horiz-adv-x="660" unicode="~"/><glyph glyph-name="uni00A0" horiz-adv-x="278"/><glyph d="M225 370l22 -545h-103l17 545h64zM241 538v-93h-95v93h95z" glyph-name="exclamdown" horiz-adv-x="389" unicode="¡"/><glyph d="M275 65v402q-41 -9 -68.5 -41.5t-38.5 -72t-11 -83.5q0 -71 29.5 -130.5t88.5 -74.5zM275 536v87h41v-89q78 -8 117 -79l3 -9v77h64v-193h-65q-2 56 -33.5 96t-85.5 44v-409q47 2 77.5 34.5t35.5 81.5h77q-4 -79 -57.5 -128t-132.5 -54v-92h-41v93q-76 7 -129 57.5 t-69 127.5q-10 47 -10 88q0 102 56 181.5t152 85.5z" glyph-name="cent" unicode="¢"/><glyph d="M494 0h-459v66h81v293h-85v68h85v76q0 108 50 166q52 60 156 60q78 0 130 -46.5t51 -123.5h-89q0 48 -24.5 74.5t-72.5 26.5q-66 0 -95 -53q-17 -30 -17 -106v-74h126v-68h-126v-290h213v106h76v-175z" glyph-name="sterling" unicode="£"/><glyph d="M40 142l55 54q-50 61 -50 143q0 84 50 145l-55 53l40 41l54 -54q64 50 145 50q83 0 144 -50l54 54l40 -41l-53 -53q49 -62 49 -145q0 -76 -49 -143l53 -54l-41 -39l-53 53q-64 -51 -142 -51q-77 0 -147 51l-53 -53zM280 515q-73 0 -124 -51t-51 -123t50.5 -123.5 t122.5 -51.5t124 50.5t52 122.5q0 73 -50.5 124.5t-123.5 51.5z" glyph-name="currency" horiz-adv-x="560" unicode="¤"/><glyph d="M430 0h-309v66h111v155h-248v45h248v27l-27 45h-221v45h193l-166 270h-55v63h254v-63h-99l170 -283l169 283h-94v63h244v-63h-56l-169 -270h193v-45h-221l-28 -45v-27h249v-45h-249v-155h111v-66z" glyph-name="yen" unicode="¥"/><glyph d="M294 0v295h62v-295h-62zM294 436v295h62v-295h-62z" glyph-name="brokenbar" horiz-adv-x="660" unicode="¦"/><glyph d="M466 548h-89q0 59 -27 85q-29 29 -77 29q-45 0 -74 -22.5t-29 -65.5q0 -24 15 -42.5t28.5 -25.5t41.5 -19q3 -2 5 -2.5t4 -1.5l74 -32q35 -15 52.5 -24t42.5 -26.5t36 -41.5t11 -55q0 -45 -23 -80t-65 -47q42 -15 63.5 -52t21.5 -85q0 -35 -17.5 -70t-46.5 -54 q-54 -35 -132 -35q-98 0 -151 42.5t-51 138.5h90q-1 -54 28.5 -85t82.5 -31q44 0 76 26.5t32 69.5q0 58 -69 83q-82 30 -122 47q-29 12 -39.5 17.5t-26.5 17t-31 29.5q-26 30 -26 84q0 41 24 75.5t62 47.5q-78 44 -78 132q0 33 17 65.5t44 51.5q50 35 124 35q97 0 150 -42 t49 -137zM203 410q-40 -25 -40 -74q0 -29 13 -48q3 -5 12 -12.5t10 -8.5q20 -14 42.5 -24t58 -23.5t45.5 -17.5q2 1 5.5 3.5t5.5 3.5q38 30 38 72q0 33 -17.5 52.5t-51.5 35.5q-30 14 -111 47q-1 0 -5 -2t-5 -4z" glyph-name="section" unicode="§"/><glyph d="M86 705v-86h-90v86h90zM275 619h-90v86h90v-86z" glyph-name="dieresis" horiz-adv-x="278" unicode="¨"/><glyph d="M407 -12q-151 0 -258 109t-107 261q0 153 107.5 261t261.5 108q151 0 259 -107.5t108 -258.5q0 -157 -107.5 -265t-263.5 -108zM92 359q0 -133 93.5 -227t225.5 -93q130 -1 223.5 92.5t93.5 224.5q0 134 -93 227.5t-226 93.5q-130 0 -223.5 -93.5t-93.5 -224.5zM551 283 l60 -19q-20 -61 -76 -93t-124 -32q-94 0 -151.5 60.5t-57.5 155.5q0 99 62 162t160 63q64 0 119 -31.5t68 -88.5l-68 -16q-8 46 -40.5 70.5t-81.5 24.5q-73 0 -113 -53t-40 -128t39 -125t112 -50q99 0 132 100z" glyph-name="copyright" horiz-adv-x="820" unicode="©"/><glyph d="M212 597l1 10l-1 16q-2 33 -16 47q-15 15 -41 15q-37 0 -55 -23q-9 -10 -11 -33h-44q3 62 60 81q15 6 47 6q47 0 76 -24q27 -20 27 -69v-158h44v-33h-87v54q-12 -30 -32.5 -42t-55.5 -12q-4 0 -13 -1t-14 0q-32 6 -48 33q-14 19 -14 49q0 43 30 63.5t76 21.5h30 q28 0 41 -1zM212 566q-13 2 -39 2q-28 0 -44.5 -2t-32 -15t-15.5 -38q0 -48 48 -48q79 0 83 101zM35 350v41h264v-41h-264z" glyph-name="ordfeminine" horiz-adv-x="334" unicode="ª"/><glyph d="M371 59l-82 217l82 213h74l-82 -213l81 -217h-73zM268 489l-83 -213l83 -217h-74l-83 217l83 213h74z" glyph-name="guillemotleft" unicode="«"/><glyph d="M524 155v247h-448v61h508v-308h-60z" glyph-name="logicalnot" horiz-adv-x="660" unicode="¬"/><glyph d="M49 240v73h236v-73h-236z" glyph-name="uni00AD" horiz-adv-x="333" unicode="­"/><glyph d="M409 -12q-152 0 -259.5 109t-107.5 262t108.5 260.5t261.5 107.5t260.5 -108.5t107.5 -261.5t-109 -261t-262 -108zM92 359q0 -134 94 -228t228 -94q130 0 223 95.5t93 226.5q0 132 -94.5 225t-226.5 93q-130 0 -223.5 -93.5t-93.5 -224.5zM483 341l126 -199h-72 l-119 199h-96v-199h-62v440h200q71 0 105 -20q52 -30 52 -100q0 -60 -36 -89.5t-98 -31.5zM322 389h115q24 0 42 2.5t36.5 10t28.5 23.5t10 41q0 71 -109 71h-123v-148z" glyph-name="registered" horiz-adv-x="820" unicode="®"/><glyph d="M269 638h-260v45h260v-45z" glyph-name="macron" horiz-adv-x="278" unicode="¯"/><glyph d="M350 579q0 -62 -44 -106t-106 -44t-106 44t-44 106q-1 61 43.5 105.5t106.5 44.5t106 -44.5t44 -105.5zM310 579q0 45 -32.5 77.5t-78.5 32.5q-45 0 -77.5 -32.5t-31.5 -77.5q0 -46 32 -78t78 -32q45 0 77.5 32t32.5 78z" glyph-name="degree" horiz-adv-x="400" unicode="°"/><glyph d="M71 388h223v223h62v-223h223v-61h-223v-223h-62v223h-223v61zM579 0h-508v61h508v-61z" glyph-name="plusminus" horiz-adv-x="660" unicode="±"/><glyph d="M311 292h-288v68q133 111 177 163t44 87t-20 56.5t-57 21.5q-39 0 -60.5 -26.5t-20.5 -62.5h-59q9 130 140 130q60 0 98.5 -28.5t38.5 -79.5q0 -39 -14.5 -65t-47.5 -60q-36 -37 -113 -110l-56 -53h187v69h51v-110z" glyph-name="twosuperior" horiz-adv-x="333" unicode="²"/><glyph d="M172 729q31 0 52 -7q39 -12 60.5 -40.5t21.5 -65.5q0 -44 -25 -71t-72 -34v-2q48 -4 74.5 -31.5t26.5 -71.5q0 -58 -40 -90t-104 -32q-67 0 -104.5 33.5t-37.5 94.5h61q1 -36 21 -61t57 -25q41 0 65 22.5t24 60.5q0 43 -33 64q-21 16 -72 18v40q45 -1 73 19t28 61 q0 34 -21 55.5t-58 21.5q-35 0 -55 -18q-22 -22 -25 -46v-17h-60q1 57 40.5 89.5t102.5 32.5z" glyph-name="threesuperior" horiz-adv-x="333" unicode="³"/><glyph d="M127 600h-51l112 138h77z" glyph-name="acute" horiz-adv-x="278" unicode="´"/><glyph d="M419 0v100h-2q-17 -57 -52.5 -82t-98.5 -25q-22 0 -72 21q-17 7 -19 -18q0 -10 8 -82q4 -33 -8 -54.5t-32 -21.5q-44 0 -41 80q1 18 9.5 52.5t6.5 51.5q-1 12 -4.5 37.5t-4.5 35.5q-7 44 -7 70v298h-82v59h163v-320q0 -31 3.5 -53.5t13 -46.5t31 -36.5t53.5 -12.5 q37 0 67.5 19.5t46.5 53.5q21 43 21 126v211h-88v59h169v-459h83v-63h-164z" glyph-name="mu" horiz-adv-x="611" unicode="µ"/><glyph d="M241 716h248v-62h-88v-781h-52v781h-82v-781h-53v486q-75 2 -126.5 52.5t-51.5 125.5q0 82 61 135q30 26 63 35t81 9z" glyph-name="paragraph" horiz-adv-x="500" unicode="¶"/><glyph d="M88 416h102v-101h-102v101z" glyph-name="periodcentered" horiz-adv-x="278" unicode="·"/><glyph d="M29 -188l15 30q45 -15 64 -15q25 0 45.5 12t20.5 35q0 19 -12 26q-13 13 -39 13q-15 0 -43 -8l-15 13l60 82h38l-46 -59q24 6 32 6q38 0 63 -22q6 -8 10 -14q10 -11 10 -36q0 -34 -29 -59q-36 -23 -84 -23q-32 0 -73 12q-10 6 -17 7z" glyph-name="cedilla" horiz-adv-x="278" unicode="¸"/><glyph d="M54 592v55q77 57 101 82h59v-390h66v-40h-193v40h71v337l-9 -9q-41 -43 -95 -75z" glyph-name="onesuperior" horiz-adv-x="333" unicode="¹"/><glyph d="M84 576q0 -51 19 -77q23 -35 65 -35q20 0 39 11.5t29 29.5q15 30 15 72q0 46 -19.5 77.5t-63.5 31.5t-69 -39q-15 -27 -15 -71zM37 576q0 65 35 101q36 39 99 39t95 -40t32 -103q0 -61 -34 -101.5t-96 -40.5q-68 0 -100 46q-31 42 -31 99zM37 391h261v-41h-261v41z" glyph-name="ordmasculine" horiz-adv-x="334" unicode="º"/><glyph d="M185 489l82 -213l-82 -217h-74l82 217l-81 213h73zM370 276l-80 213h74l80 -213l-86 -217h-74z" glyph-name="guillemotright" unicode="»"/><glyph d="M691 115h-198v57l182 258h69v-276h65v-39h-65v-75h59v-40h-183v40h71v75zM256 0h-58l441 729h58zM534 154h157v227zM25 592v55q77 57 101 82h59v-390h66v-40h-193v40h71v337l-9 -9q-41 -43 -95 -75z" glyph-name="onequarter" horiz-adv-x="834" unicode="¼"/><glyph d="M226 0h-58l441 729h58zM25 592v55q77 57 101 82h59v-390h66v-40h-193v40h71v337l-9 -9q-41 -43 -95 -75zM809 0h-288v68q133 111 177 163t44 87t-20 56.5t-57 21.5q-39 0 -60.5 -26.5t-20.5 -62.5h-59q9 130 140 130q60 0 98.5 -28.5t38.5 -79.5q0 -39 -14.5 -65 t-47.5 -60q-36 -37 -113 -110l-56 -53h187v69h51v-110z" glyph-name="onehalf" horiz-adv-x="834" unicode="½"/><glyph d="M256 0h-58l441 729h58zM691 115h-198v57l182 258h69v-276h65v-39h-65v-75h59v-40h-183v40h71v75zM534 154h157v227zM173 729q31 0 52 -7q39 -12 60.5 -40.5t21.5 -65.5q0 -44 -25 -71t-72 -34v-2q48 -4 74.5 -31.5t26.5 -71.5q0 -58 -40 -90t-104 -32q-67 0 -104.5 33.5 t-37.5 94.5h61q1 -36 21 -61t57 -25q41 0 65 22.5t24 60.5q0 43 -33 64q-21 16 -72 18v40q45 -1 73 19t28 61q0 34 -21 55.5t-58 21.5q-36 0 -55 -18q-22 -22 -25 -46v-17h-60q1 57 40.5 89.5t102.5 32.5z" glyph-name="threequarters" horiz-adv-x="834" unicode="¾"/><glyph d="M230 375h88q0 -73 -15.5 -118.5t-64.5 -86.5q-16 -14 -46 -42q-32 -32 -43.5 -55.5t-11.5 -65.5q0 -55 31.5 -86t87.5 -31q50 0 80 37t30 87h90q-5 -90 -56 -139.5t-143 -49.5q-102 0 -155 48q-57 53 -57 137q0 57 28 100t81 89q49 43 63 76t13 100zM322 447h-94v91h94 v-91z" glyph-name="questiondown" horiz-adv-x="500" unicode="¿"/><glyph d="M263 304h240l-119 334zM84 66l253 650h102l249 -650h72v-66h-266v66h99l-62 172h-296l-61 -172h98v-66h-262v66h74zM400 794l-137 138h77l111 -138h-51z" glyph-name="Agrave" horiz-adv-x="778" unicode="À"/><glyph d="M263 304h240l-119 334zM84 66l253 650h102l249 -650h72v-66h-266v66h99l-62 172h-296l-61 -172h98v-66h-262v66h74zM377 794h-51l112 138h77z" glyph-name="Aacute" horiz-adv-x="778" unicode="Á"/><glyph d="M263 304h240l-119 334zM84 66l253 650h102l249 -650h72v-66h-266v66h99l-62 172h-296l-61 -172h98v-66h-262v66h74zM389 895l-82 -101h-64l112 138h67l114 -138h-65z" glyph-name="Acircumflex" horiz-adv-x="778" unicode="Â"/><glyph d="M263 304h240l-119 334zM84 66l253 650h102l249 -650h72v-66h-266v66h99l-62 172h-296l-61 -172h98v-66h-262v66h74zM270 805h-36q5 41 28 69t60 28q26 0 75 -22.5t67 -22.5q6 0 16 4t13 9q11 12 15 37h38q-3 -39 -24 -68t-58 -29q-28 0 -78.5 24t-81.5 19 q-23 -11 -34 -48z" glyph-name="Atilde" horiz-adv-x="778" unicode="Ã"/><glyph d="M263 304h240l-119 334zM84 66l253 650h102l249 -650h72v-66h-266v66h99l-62 172h-296l-61 -172h98v-66h-262v66h74zM336 889v-86h-90v86h90zM525 803h-90v86h90v-86z" glyph-name="Adieresis" horiz-adv-x="778" unicode="Ä"/><glyph d="M263 304h240l-119 334zM84 66l253 650h102l249 -650h72v-66h-266v66h99l-62 172h-296l-61 -172h98v-66h-262v66h74zM389 761q-41 0 -70.5 29.5t-29.5 70.5q0 40 30 69.5t70 29.5t69.5 -29.5t29.5 -69.5q0 -41 -29 -70.5t-70 -29.5zM389 927q-27 0 -46.5 -19.5 t-19.5 -46.5t20 -46.5t46 -19.5t46 20t20 46t-19.5 46t-46.5 20z" glyph-name="Aring" horiz-adv-x="778" unicode="Å"/><glyph d="M409 716h532v-207h-78v140h-312l33 -245h134v105h73v-276h-73v105h-124l37 -272h243v153h77v-219h-508v66h102l-22 171h-290l-92 -171h102v-66h-229v66h37zM514 302l-47 362h-7l-189 -362h243z" glyph-name="AE" horiz-adv-x="1000" unicode="Æ"/><glyph d="M660 462h-78q-5 90 -54.5 142.5t-137.5 52.5q-63 0 -109.5 -23.5t-73 -65t-39 -92t-12.5 -110.5q0 -48 6.5 -90.5t22.5 -83t41 -69t65.5 -46t92.5 -17.5q83 0 132.5 49t54.5 132h92q-4 -120 -81 -187t-199 -66h-7l-37 -47q24 6 32 6q38 0 63 -22q6 -8 10 -14 q10 -11 10 -36q0 -34 -29 -59q-36 -23 -84 -23q-32 0 -73 12q-10 6 -17 7l15 30q45 -15 64 -15q25 0 45.5 12t20.5 35q0 19 -12 26q-13 13 -39 13q-15 0 -43 -8l-15 13l53 72q-131 13 -205 107q-38 48 -57 119.5t-19 141.5q0 158 74 254q89 115 247 115q157 0 208 -115v104 h72v-254z" glyph-name="Ccedilla" horiz-adv-x="722" unicode="Ç"/><glyph d="M601 0h-572v66h102v584h-102v66h572v-214h-78v148h-305v-253h148v109h72v-282h-72v107h-148v-265h305v157h78v-223zM345 794l-137 138h77l111 -138h-51z" glyph-name="Egrave" horiz-adv-x="667" unicode="È"/><glyph d="M601 0h-572v66h102v584h-102v66h572v-214h-78v148h-305v-253h148v109h72v-282h-72v107h-148v-265h305v157h78v-223zM322 794h-51l112 138h77z" glyph-name="Eacute" horiz-adv-x="667" unicode="É"/><glyph d="M601 0h-572v66h102v584h-102v66h572v-214h-78v148h-305v-253h148v109h72v-282h-72v107h-148v-265h305v157h78v-223zM334 895l-82 -101h-64l112 138h67l114 -138h-65z" glyph-name="Ecircumflex" horiz-adv-x="667" unicode="Ê"/><glyph d="M601 0h-572v66h102v584h-102v66h572v-214h-78v148h-305v-253h148v109h72v-282h-72v107h-148v-265h305v157h78v-223zM281 889v-86h-90v86h90zM470 803h-90v86h90v-86z" glyph-name="Edieresis" horiz-adv-x="667" unicode="Ë"/><glyph d="M23 650v66h288v-66h-101v-584h101v-66h-288v66h100v584h-100zM178 794l-137 138h77l111 -138h-51z" glyph-name="Igrave" horiz-adv-x="333" unicode="Ì"/><glyph d="M23 650v66h288v-66h-101v-584h101v-66h-288v66h100v584h-100zM155 794h-51l112 138h77z" glyph-name="Iacute" horiz-adv-x="333" unicode="Í"/><glyph d="M23 650v66h288v-66h-101v-584h101v-66h-288v66h100v584h-100zM167 895l-82 -101h-64l112 138h67l114 -138h-65z" glyph-name="Icircumflex" horiz-adv-x="333" unicode="Î"/><glyph d="M23 650v66h288v-66h-101v-584h101v-66h-288v66h100v584h-100zM114 889v-86h-90v86h90zM303 803h-90v86h90v-86z" glyph-name="Idieresis" horiz-adv-x="333" unicode="Ï"/><glyph d="M213 650v-235h143v-50h-143v-299h76q74 0 125.5 14t93.5 57q36 37 54 94t18 116q0 69 -17 127.5t-61.5 106.5t-110.5 61q-42 8 -80 8h-98zM126 415v235h-101v66h278q79 0 121 -8q127 -24 190 -128q56 -93 56 -217q0 -149 -65 -241q-39 -54 -89.5 -81t-121.5 -37 q-34 -4 -113 -4h-256v66h101v299h-101v50h101z" glyph-name="Eth" horiz-adv-x="722" unicode="Ð"/><glyph d="M309 0h-280v66h101v584h-101v66h230l316 -623v557h-100v66h276v-66h-98v-650h-121l-326 641v-575h103v-66zM270 805h-36q5 41 28 69t60 28q26 0 75 -22.5t67 -22.5q6 0 16 4t13 9q11 12 15 37h38q-3 -39 -24 -68t-58 -29q-28 0 -78.5 24t-81.5 19q-23 -11 -34 -48z" glyph-name="Ntilde" horiz-adv-x="778" unicode="Ñ"/><glyph d="M396 -12q-159 0 -249 100.5t-90 259.5q0 170 84 272q87 107 252 107q161 0 251 -111q77 -94 77 -263q0 -77 -20 -141q-26 -77 -60 -120q-85 -104 -245 -104zM390 662q-63 0 -110.5 -26t-74 -70t-39.5 -96t-13 -111q0 -142 52 -211q69 -95 190 -95q117 0 183 101 q49 78 49 203q0 59 -12.5 111.5t-39 97t-74 70.5t-111.5 26zM400 794l-137 138h77l111 -138h-51z" glyph-name="Ograve" horiz-adv-x="778" unicode="Ò"/><glyph d="M396 -12q-159 0 -249 100.5t-90 259.5q0 170 84 272q87 107 252 107q161 0 251 -111q77 -94 77 -263q0 -77 -20 -141q-26 -77 -60 -120q-85 -104 -245 -104zM390 662q-63 0 -110.5 -26t-74 -70t-39.5 -96t-13 -111q0 -142 52 -211q69 -95 190 -95q117 0 183 101 q49 78 49 203q0 59 -12.5 111.5t-39 97t-74 70.5t-111.5 26zM377 794h-51l112 138h77z" glyph-name="Oacute" horiz-adv-x="778" unicode="Ó"/><glyph d="M396 -12q-159 0 -249 100.5t-90 259.5q0 170 84 272q87 107 252 107q161 0 251 -111q77 -94 77 -263q0 -77 -20 -141q-26 -77 -60 -120q-85 -104 -245 -104zM390 662q-63 0 -110.5 -26t-74 -70t-39.5 -96t-13 -111q0 -142 52 -211q69 -95 190 -95q117 0 183 101 q49 78 49 203q0 59 -12.5 111.5t-39 97t-74 70.5t-111.5 26zM389 895l-82 -101h-64l112 138h67l114 -138h-65z" glyph-name="Ocircumflex" horiz-adv-x="778" unicode="Ô"/><glyph d="M396 -12q-159 0 -249 100.5t-90 259.5q0 170 84 272q87 107 252 107q161 0 251 -111q77 -94 77 -263q0 -77 -20 -141q-26 -77 -60 -120q-85 -104 -245 -104zM390 662q-63 0 -110.5 -26t-74 -70t-39.5 -96t-13 -111q0 -142 52 -211q69 -95 190 -95q117 0 183 101 q49 78 49 203q0 59 -12.5 111.5t-39 97t-74 70.5t-111.5 26zM270 805h-36q5 41 28 69t60 28q26 0 75 -22.5t67 -22.5q6 0 16 4t13 9q11 12 15 37h38q-3 -39 -24 -68t-58 -29q-28 0 -78.5 24t-81.5 19q-23 -11 -34 -48z" glyph-name="Otilde" horiz-adv-x="778" unicode="Õ"/><glyph d="M396 -12q-159 0 -249 100.5t-90 259.5q0 170 84 272q87 107 252 107q161 0 251 -111q77 -94 77 -263q0 -77 -20 -141q-26 -77 -60 -120q-85 -104 -245 -104zM390 662q-63 0 -110.5 -26t-74 -70t-39.5 -96t-13 -111q0 -142 52 -211q69 -95 190 -95q117 0 183 101 q49 78 49 203q0 59 -12.5 111.5t-39 97t-74 70.5t-111.5 26zM336 889v-86h-90v86h90zM525 803h-90v86h90v-86z" glyph-name="Odieresis" horiz-adv-x="778" unicode="Ö"/><glyph d="M71 147l216 210l-216 210l44 44l215 -210l216 210l43 -44l-216 -209l216 -210l-44 -44l-215 210l-216 -210z" glyph-name="multiply" horiz-adv-x="660" unicode="×"/><glyph d="M584 556l-355 -436q64 -67 166 -67q119 0 182 101q50 82 50 209q0 121 -43 193zM72 3l73 89q-88 97 -88 256q0 168 81 268q42 53 108 82t138 29q135 0 219 -73l69 85l36 -31l-66 -86q46 -58 62.5 -122t16.5 -147q0 -80 -21 -147q-11 -38 -24.5 -62t-39.5 -52 q-97 -104 -244 -104q-128 0 -213 71l-71 -87zM198 157l357 438q-66 67 -167 67q-62 0 -109 -26t-73.5 -70.5t-39.5 -96.5t-13 -110q0 -131 45 -202z" glyph-name="Oslash" horiz-adv-x="778" unicode="Ø"/><glyph d="M14 716h283v-66h-107v-374q0 -107 39 -158q44 -58 133 -58q46 0 86.5 21t61.5 60q14 25 20.5 55t7.5 50t1 58v346h-105v66h271v-66h-89v-367q0 -101 -23 -152q-15 -31 -43.5 -63t-56.5 -47q-62 -32 -136 -32q-58 0 -112 22.5t-89 65.5q-35 41 -44.5 86t-9.5 114v373h-88 v66zM372 794l-137 138h77l111 -138h-51z" glyph-name="Ugrave" horiz-adv-x="722" unicode="Ù"/><glyph d="M14 716h283v-66h-107v-374q0 -107 39 -158q44 -58 133 -58q46 0 86.5 21t61.5 60q14 25 20.5 55t7.5 50t1 58v346h-105v66h271v-66h-89v-367q0 -101 -23 -152q-15 -31 -43.5 -63t-56.5 -47q-62 -32 -136 -32q-58 0 -112 22.5t-89 65.5q-35 41 -44.5 86t-9.5 114v373h-88 v66zM349 794h-51l112 138h77z" glyph-name="Uacute" horiz-adv-x="722" unicode="Ú"/><glyph d="M14 716h283v-66h-107v-374q0 -107 39 -158q44 -58 133 -58q46 0 86.5 21t61.5 60q14 25 20.5 55t7.5 50t1 58v346h-105v66h271v-66h-89v-367q0 -101 -23 -152q-15 -31 -43.5 -63t-56.5 -47q-62 -32 -136 -32q-58 0 -112 22.5t-89 65.5q-35 41 -44.5 86t-9.5 114v373h-88 v66zM361 895l-82 -101h-64l112 138h67l114 -138h-65z" glyph-name="Ucircumflex" horiz-adv-x="722" unicode="Û"/><glyph d="M14 716h283v-66h-107v-374q0 -107 39 -158q44 -58 133 -58q46 0 86.5 21t61.5 60q14 25 20.5 55t7.5 50t1 58v346h-105v66h271v-66h-89v-367q0 -101 -23 -152q-15 -31 -43.5 -63t-56.5 -47q-62 -32 -136 -32q-58 0 -112 22.5t-89 65.5q-35 41 -44.5 86t-9.5 114v373h-88 v66zM308 889v-86h-90v86h90zM497 803h-90v86h90v-86z" glyph-name="Udieresis" horiz-adv-x="722" unicode="Ü"/><glyph d="M486 0h-309v66h111v227l-221 357h-55v66h254v-66h-99l170 -280l169 280h-94v66h244v-66h-56l-225 -357v-227h111v-66zM322 794h-51l112 138h77z" glyph-name="Yacute" horiz-adv-x="667" unicode="Ý"/><glyph d="M218 512v-290h108q29 0 45 1t38.5 9t38.5 24q38 37 38 109q0 86 -48 119q-17 13 -40 19.5t-38 7.5t-44 1h-98zM320 0h-291v66h102v584h-102v66h291v-66h-102v-72h126q60 0 94 -8q69 -17 103 -72.5t34 -131.5q0 -106 -71 -169q-23 -20 -56 -30t-50.5 -10.5t-63.5 -0.5 h-116v-90h102v-66z" glyph-name="Thorn" horiz-adv-x="611" unicode="Þ"/><glyph d="M229 0h-215v63h84v453q0 40 2 62.5t14 52.5t36 50q59 49 157 49q85 0 138 -37.5t53 -119.5q0 -70 -39 -112.5t-108 -50.5q81 -7 125.5 -61t44.5 -137q0 -47 -16 -93.5t-47 -74.5q-50 -46 -166 -44v63q72 -5 107 35t35 113q0 77 -36 119t-112 38v74q55 0 90.5 34t35.5 89 q0 51 -29 77t-80 26q-30 0 -59.5 -13t-43.5 -37q-5 -8 -8 -15.5t-5 -16.5t-3.5 -15t-2 -17t-0.5 -15.5v-18v-16.5v-441h48v-63z" glyph-name="germandbls" unicode="ß"/><glyph d="M383 0v103q-26 -58 -66.5 -84t-104.5 -26q-60 0 -104 27.5t-58 82.5q-5 21 -5 49q0 82 56.5 122t142.5 40q10 0 29 0.5t28 0.5h82v48q-3 31 -9.5 49.5t-25.5 37.5q-28 28 -77 28q-37 0 -60 -8t-44 -34q-16 -19 -20 -62h-84q6 117 113 153q32 11 89 11q86 0 143 -45 q50 -39 50 -130v-300h83v-63h-158zM131 150q0 -44 24 -71t67 -27q83 0 120.5 57t40.5 144q-25 4 -80 4q-30 0 -49 -1t-45 -7t-41 -16.5t-26 -31.5t-11 -51zM289 600l-137 138h77l111 -138h-51z" glyph-name="agrave" unicode="à"/><glyph d="M383 0v103q-26 -58 -66.5 -84t-104.5 -26q-60 0 -104 27.5t-58 82.5q-5 21 -5 49q0 82 56.5 122t142.5 40q10 0 29 0.5t28 0.5h82v48q-3 31 -9.5 49.5t-25.5 37.5q-28 28 -77 28q-37 0 -60 -8t-44 -34q-16 -19 -20 -62h-84q6 117 113 153q32 11 89 11q86 0 143 -45 q50 -39 50 -130v-300h83v-63h-158zM131 150q0 -44 24 -71t67 -27q83 0 120.5 57t40.5 144q-25 4 -80 4q-30 0 -49 -1t-45 -7t-41 -16.5t-26 -31.5t-11 -51zM266 600h-51l112 138h77z" glyph-name="aacute" unicode="á"/><glyph d="M383 0v103q-26 -58 -66.5 -84t-104.5 -26q-60 0 -104 27.5t-58 82.5q-5 21 -5 49q0 82 56.5 122t142.5 40q10 0 29 0.5t28 0.5h82v48q-3 31 -9.5 49.5t-25.5 37.5q-28 28 -77 28q-37 0 -60 -8t-44 -34q-16 -19 -20 -62h-84q6 117 113 153q32 11 89 11q86 0 143 -45 q50 -39 50 -130v-300h83v-63h-158zM131 150q0 -44 24 -71t67 -27q83 0 120.5 57t40.5 144q-25 4 -80 4q-30 0 -49 -1t-45 -7t-41 -16.5t-26 -31.5t-11 -51zM278 701l-82 -101h-64l112 138h67l114 -138h-65z" glyph-name="acircumflex" unicode="â"/><glyph d="M383 0v103q-26 -58 -66.5 -84t-104.5 -26q-60 0 -104 27.5t-58 82.5q-5 21 -5 49q0 82 56.5 122t142.5 40q10 0 29 0.5t28 0.5h82v48q-3 31 -9.5 49.5t-25.5 37.5q-28 28 -77 28q-37 0 -60 -8t-44 -34q-16 -19 -20 -62h-84q6 117 113 153q32 11 89 11q86 0 143 -45 q50 -39 50 -130v-300h83v-63h-158zM131 150q0 -44 24 -71t67 -27q83 0 120.5 57t40.5 144q-25 4 -80 4q-30 0 -49 -1t-45 -7t-41 -16.5t-26 -31.5t-11 -51zM159 611h-36q5 41 28 69t60 28q26 0 75 -22.5t67 -22.5q6 0 16 4t13 9q11 12 15 37h38q-3 -39 -24 -68t-58 -29 q-28 0 -78.5 24t-81.5 19q-23 -11 -34 -48z" glyph-name="atilde" unicode="ã"/><glyph d="M383 0v103q-26 -58 -66.5 -84t-104.5 -26q-60 0 -104 27.5t-58 82.5q-5 21 -5 49q0 82 56.5 122t142.5 40q10 0 29 0.5t28 0.5h82v48q-3 31 -9.5 49.5t-25.5 37.5q-28 28 -77 28q-37 0 -60 -8t-44 -34q-16 -19 -20 -62h-84q6 117 113 153q32 11 89 11q86 0 143 -45 q50 -39 50 -130v-300h83v-63h-158zM131 150q0 -44 24 -71t67 -27q83 0 120.5 57t40.5 144q-25 4 -80 4q-30 0 -49 -1t-45 -7t-41 -16.5t-26 -31.5t-11 -51zM225 705v-86h-90v86h90zM414 619h-90v86h90v-86z" glyph-name="adieresis" unicode="ä"/><glyph d="M383 0v103q-26 -58 -66.5 -84t-104.5 -26q-60 0 -104 27.5t-58 82.5q-5 21 -5 49q0 82 56.5 122t142.5 40q10 0 29 0.5t28 0.5h82v48q-3 31 -9.5 49.5t-25.5 37.5q-28 28 -77 28q-37 0 -60 -8t-44 -34q-16 -19 -20 -62h-84q6 117 113 153q32 11 89 11q86 0 143 -45 q50 -39 50 -130v-300h83v-63h-158zM131 150q0 -44 24 -71t67 -27q83 0 120.5 57t40.5 144q-25 4 -80 4q-30 0 -49 -1t-45 -7t-41 -16.5t-26 -31.5t-11 -51zM278 583q-40 0 -70 29.5t-30 70.5q0 40 30 69.5t70 29.5t69.5 -29.5t29.5 -69.5q0 -41 -29 -70.5t-70 -29.5z M278 749q-27 0 -46.5 -19.5t-19.5 -46.5t20 -46.5t46 -19.5t46 20t20 46t-19.5 46t-46.5 20z" glyph-name="aring" unicode="å"/><glyph d="M305 300h73v32q0 5 0.5 20.5t0 23t-1.5 20t-4.5 22.5t-9.5 19q-27 41 -83 41q-53 0 -81.5 -29t-30.5 -82h-84q0 82 59 131q49 40 132 40q136 0 159 -94q35 94 153 94q94 0 136.5 -52.5t52.5 -150.5q1 -10 1 -92h-324q-3 -48 8 -89.5t44 -71.5t83 -30q46 0 77.5 35.5 t33.5 81.5h72q-5 -81 -56.5 -128.5t-133.5 -47.5q-1 0 -60 7q-33 5 -73 44.5t-44 72.5q-42 -124 -173 -124q-78 0 -122 41.5t-44 117.5q0 46 22.5 81t65.5 50q45 17 152 17zM453 300h246q8 176 -119 176q-45 0 -75 -28.5t-41 -66t-11 -81.5zM378 243h-31q-5 0 -29.5 0.5 t-33.5 0t-31.5 -2t-32.5 -5t-26.5 -11t-24 -17.5t-13.5 -25t-6 -35q0 -42 26 -69t68 -27q69 0 101.5 57t32.5 134z" glyph-name="ae" horiz-adv-x="833" unicode="æ"/><glyph d="M472 330h-63q0 57 -36.5 99.5t-91.5 42.5q-78 0 -116.5 -60t-38.5 -142q0 -84 37 -145q41 -67 117 -67q49 0 83 34.5t39 84.5h76q-1 -84 -61 -134.5t-145 -49.5h-3l-41 -52q24 6 32 6q38 0 63 -22q6 -8 10 -14q10 -11 10 -36q0 -34 -29 -59q-36 -23 -84 -23q-32 0 -73 12 q-10 6 -17 7l15 30q45 -15 64 -15q25 0 45.5 12t20.5 35q0 19 -12 26q-13 13 -39 13q-15 0 -43 -8l-15 13l57 78q-92 14 -144 86.5t-52 173.5q0 120 60 201q28 37 71 59t92 22q99 0 149 -81v65h63v-192z" glyph-name="ccedilla" horiz-adv-x="500" unicode="ç"/><glyph d="M520 259v-14h-385q5 -92 46 -140q25 -30 52.5 -40.5t71.5 -10.5q48 0 87 31.5t44 77.5h77q-14 -82 -74 -126t-148 -44q-122 0 -181 72.5t-59 196.5q0 96 39 164q29 52 84.5 82t118.5 30q85 0 142 -46q58 -48 74 -129q11 -52 11 -104zM139 305h295q-1 69 -38.5 121 t-104.5 52q-68 0 -107.5 -51.5t-44.5 -121.5zM289 600l-137 138h77l111 -138h-51z" glyph-name="egrave" unicode="è"/><glyph d="M520 259v-14h-385q5 -92 46 -140q25 -30 52.5 -40.5t71.5 -10.5q48 0 87 31.5t44 77.5h77q-14 -82 -74 -126t-148 -44q-122 0 -181 72.5t-59 196.5q0 96 39 164q29 52 84.5 82t118.5 30q85 0 142 -46q58 -48 74 -129q11 -52 11 -104zM139 305h295q-1 69 -38.5 121 t-104.5 52q-68 0 -107.5 -51.5t-44.5 -121.5zM266 600h-51l112 138h77z" glyph-name="eacute" unicode="é"/><glyph d="M520 259v-14h-385q5 -92 46 -140q25 -30 52.5 -40.5t71.5 -10.5q48 0 87 31.5t44 77.5h77q-14 -82 -74 -126t-148 -44q-122 0 -181 72.5t-59 196.5q0 96 39 164q29 52 84.5 82t118.5 30q85 0 142 -46q58 -48 74 -129q11 -52 11 -104zM139 305h295q-1 69 -38.5 121 t-104.5 52q-68 0 -107.5 -51.5t-44.5 -121.5zM278 701l-82 -101h-64l112 138h67l114 -138h-65z" glyph-name="ecircumflex" unicode="ê"/><glyph d="M520 259v-14h-385q5 -92 46 -140q25 -30 52.5 -40.5t71.5 -10.5q48 0 87 31.5t44 77.5h77q-14 -82 -74 -126t-148 -44q-122 0 -181 72.5t-59 196.5q0 96 39 164q29 52 84.5 82t118.5 30q85 0 142 -46q58 -48 74 -129q11 -52 11 -104zM139 305h295q-1 69 -38.5 121 t-104.5 52q-68 0 -107.5 -51.5t-44.5 -121.5zM225 705v-86h-90v86h90zM414 619h-90v86h90v-86z" glyph-name="edieresis" unicode="ë"/><glyph d="M272 0h-241v63h83v400h-83v59h164v-459h77v-63zM159 600l-137 138h77l111 -138h-51z" glyph-name="igrave" horiz-adv-x="296" unicode="ì"/><glyph d="M272 0h-241v63h83v400h-83v59h164v-459h77v-63zM136 600h-51l112 138h77z" glyph-name="iacute" horiz-adv-x="296" unicode="í"/><glyph d="M272 0h-241v63h83v400h-83v59h164v-459h77v-63zM148 701l-82 -101h-64l112 138h67l114 -138h-65z" glyph-name="icircumflex" horiz-adv-x="296" unicode="î"/><glyph d="M272 0h-241v63h83v400h-83v59h164v-459h77v-63zM95 705v-86h-90v86h90zM284 619h-90v86h90v-86z" glyph-name="idieresis" horiz-adv-x="296" unicode="ï"/><glyph d="M278 53q76 0 115.5 61t39.5 139q0 82 -39 141.5t-116 59.5q-76 0 -115.5 -61.5t-39.5 -139.5t39.5 -139t115.5 -61zM169 549l-31 32l100 60q-67 35 -130 43v64q114 -16 198 -66l112 66l31 -32l-103 -61q88 -67 131.5 -169t43.5 -218q0 -124 -62.5 -199.5t-180.5 -75.5 q-116 0 -179.5 77.5t-63.5 193.5q2 110 67 180t168 70q75 0 128 -50l2 2q-30 89 -120 149z" glyph-name="eth" unicode="ð"/><glyph d="M193 522v-94q20 57 58 83.5t100 26.5q122 0 158 -110q4 -23 4 -67v-298h82v-63h-245v63h82v270q0 142 -103 142q-43 0 -71 -18q-26 -17 -44 -51q-21 -41 -21 -134v-209h82v-63h-250v63h87v400h-85v59h166zM187 611h-36q5 41 28 69t60 28q26 0 75 -22.5t67 -22.5q6 0 16 4 t13 9q11 12 15 37h38q-3 -39 -24 -68t-58 -29q-28 0 -78.5 24t-81.5 19q-23 -11 -34 -48z" glyph-name="ntilde" horiz-adv-x="611" unicode="ñ"/><glyph d="M123 267q0 -98 36 -146q47 -67 121 -67q37 0 72 22.5t53 56.5q29 54 29 137q0 86 -36 146t-118 60q-81 0 -128 -74q-29 -50 -29 -135zM37 268q0 122 65 194q69 76 183 76q117 0 177 -77.5t60 -196.5q0 -116 -63 -193.5t-178 -77.5q-125 0 -187 88q-57 81 -57 187z M289 600l-137 138h77l111 -138h-51z" glyph-name="ograve" unicode="ò"/><glyph d="M123 267q0 -98 36 -146q47 -67 121 -67q37 0 72 22.5t53 56.5q29 54 29 137q0 86 -36 146t-118 60q-81 0 -128 -74q-29 -50 -29 -135zM37 268q0 122 65 194q69 76 183 76q117 0 177 -77.5t60 -196.5q0 -116 -63 -193.5t-178 -77.5q-125 0 -187 88q-57 81 -57 187z M266 600h-51l112 138h77z" glyph-name="oacute" unicode="ó"/><glyph d="M123 267q0 -98 36 -146q47 -67 121 -67q37 0 72 22.5t53 56.5q29 54 29 137q0 86 -36 146t-118 60q-81 0 -128 -74q-29 -50 -29 -135zM37 268q0 122 65 194q69 76 183 76q117 0 177 -77.5t60 -196.5q0 -116 -63 -193.5t-178 -77.5q-125 0 -187 88q-57 81 -57 187z M278 701l-82 -101h-64l112 138h67l114 -138h-65z" glyph-name="ocircumflex" unicode="ô"/><glyph d="M123 267q0 -98 36 -146q47 -67 121 -67q37 0 72 22.5t53 56.5q29 54 29 137q0 86 -36 146t-118 60q-81 0 -128 -74q-29 -50 -29 -135zM37 268q0 122 65 194q69 76 183 76q117 0 177 -77.5t60 -196.5q0 -116 -63 -193.5t-178 -77.5q-125 0 -187 88q-57 81 -57 187z M159 611h-36q5 41 28 69t60 28q26 0 75 -22.5t67 -22.5q6 0 16 4t13 9q11 12 15 37h38q-3 -39 -24 -68t-58 -29q-28 0 -78.5 24t-81.5 19q-23 -11 -34 -48z" glyph-name="otilde" unicode="õ"/><glyph d="M123 267q0 -98 36 -146q47 -67 121 -67q37 0 72 22.5t53 56.5q29 54 29 137q0 86 -36 146t-118 60q-81 0 -128 -74q-29 -50 -29 -135zM37 268q0 122 65 194q69 76 183 76q117 0 177 -77.5t60 -196.5q0 -116 -63 -193.5t-178 -77.5q-125 0 -187 88q-57 81 -57 187z M225 705v-86h-90v86h90zM414 619h-90v86h90v-86z" glyph-name="odieresis" unicode="ö"/><glyph d="M71 388h508v-61h-508v61zM274 104v101h102v-101h-102zM274 510v101h102v-101h-102z" glyph-name="divide" horiz-adv-x="660" unicode="÷"/><glyph d="M151 135l232 299q-39 42 -103 42q-81 0 -128 -74q-29 -50 -29 -135t28 -132zM79 -21l-29 25l52 67q-2 2 -8 10q-57 81 -57 187q0 122 65 194q69 76 183 76q86 0 143 -44l47 60l35 -27l-50 -64q62 -75 62 -199q0 -116 -63 -193.5t-178 -77.5q-98 0 -152 49zM408 397 l-232 -295q42 -48 104 -48q37 0 72 22.5t53 56.5q29 54 29 137q0 78 -26 127z" glyph-name="oslash" unicode="ø"/><glyph d="M419 0v100q-19 -57 -54.5 -82t-98.5 -25q-59 0 -101 26t-56 81q-7 28 -7 102v261h-82v59h163v-320q0 -31 3.5 -53.5t13 -46.5t31 -36.5t53.5 -12.5q37 0 67.5 19.5t46.5 53.5q21 43 21 126v211h-88v59h169v-459h83v-63h-164zM317 600l-137 138h77l111 -138h-51z" glyph-name="ugrave" horiz-adv-x="611" unicode="ù"/><glyph d="M419 0v100q-19 -57 -54.5 -82t-98.5 -25q-59 0 -101 26t-56 81q-7 28 -7 102v261h-82v59h163v-320q0 -31 3.5 -53.5t13 -46.5t31 -36.5t53.5 -12.5q37 0 67.5 19.5t46.5 53.5q21 43 21 126v211h-88v59h169v-459h83v-63h-164zM294 600h-51l112 138h77z" glyph-name="uacute" horiz-adv-x="611" unicode="ú"/><glyph d="M419 0v100q-19 -57 -54.5 -82t-98.5 -25q-59 0 -101 26t-56 81q-7 28 -7 102v261h-82v59h163v-320q0 -31 3.5 -53.5t13 -46.5t31 -36.5t53.5 -12.5q37 0 67.5 19.5t46.5 53.5q21 43 21 126v211h-88v59h169v-459h83v-63h-164zM306 701l-82 -101h-64l112 138h67l114 -138 h-65z" glyph-name="ucircumflex" horiz-adv-x="611" unicode="û"/><glyph d="M419 0v100q-19 -57 -54.5 -82t-98.5 -25q-59 0 -101 26t-56 81q-7 28 -7 102v261h-82v59h163v-320q0 -31 3.5 -53.5t13 -46.5t31 -36.5t53.5 -12.5q37 0 67.5 19.5t46.5 53.5q21 43 21 126v211h-88v59h169v-459h83v-63h-164zM253 705v-86h-90v86h90zM442 619h-90v86h90 v-86z" glyph-name="udieresis" horiz-adv-x="611" unicode="ü"/><glyph d="M17 522h223v-59h-81l128 -366l124 366h-82v59h214v-59h-46l-172 -468q-18 -46 -32 -77q-23 -52 -54 -70q-35 -22 -80 -22q-14 0 -63 7v66q28 -7 60 -7q19 0 33.5 9.5t25.5 30t15 32t12 35.5l-175 464h-50v59zM266 600h-51l112 138h77z" glyph-name="yacute" unicode="ý"/><glyph d="M104 -102v758h-82v60h163v-296h2q28 61 70.5 89.5t108.5 28.5q64 0 104 -27t77 -91q28 -49 28 -153q0 -123 -48 -186q-67 -88 -162 -88q-129 0 -178 104h-2v-199h84v-60h-249v60h84zM337 53q53 0 89.5 32t51 76.5t14.5 96.5q0 94 -34 152q-17 32 -47.5 50t-66.5 18 q-84 0 -128 -75q-31 -51 -31 -136q0 -92 33 -145q43 -69 119 -69z" glyph-name="thorn" horiz-adv-x="611" unicode="þ"/><glyph d="M17 522h223v-59h-81l128 -366l124 366h-82v59h214v-59h-46l-172 -468q-18 -46 -32 -77q-23 -52 -54 -70q-35 -22 -80 -22q-14 0 -63 7v66q28 -7 60 -7q19 0 33.5 9.5t25.5 30t15 32t12 35.5l-175 464h-50v59zM225 705v-86h-90v86h90zM414 619h-90v86h90v-86z" glyph-name="ydieresis" unicode="ÿ"/><glyph d="M272 0h-241v63h83v400h-83v59h164v-459h77v-63z" glyph-name="dotlessi" horiz-adv-x="296" unicode="ı"/><glyph d="M572 0h-543v66h103v270l-103 -54v64l103 54v250h-103v66h310v-66h-120v-190l103 54v-64l-103 -54v-324h272v162h81v-234z" glyph-name="Lslash" horiz-adv-x="611" unicode="Ł"/><glyph d="M265 0h-244v63h83v323l-83 -44v48l83 44v223h-83v59h164v-245l80 44v-48l-80 -44v-360h80v-63z" glyph-name="lslash" horiz-adv-x="278" unicode="ł"/><glyph d="M935 0h-431q-32 0 -63 -3q-63 -3 -64 -3q-17 0 -51 2q-38 2 -71 15q-201 79 -201 355q0 99 32.5 179t104 131t172.5 51q19 0 53 -2q15 -1 43 -3.5t42 -2.5q75 -3 76 -3h358v-208h-78v142h-276v-255h119v105h72v-275h-72v104h-119v-263h276v152h78v-218zM494 67v588 q-62 8 -95 8q-59 0 -116 -23t-84 -68q-51 -85 -51 -212q0 -139 59 -221q58 -80 189 -80q13 0 43 2q29 2 55 6z" glyph-name="OE" horiz-adv-x="1000" unicode="Œ"/><glyph d="M804 244h-329q0 -85 26 -128q38 -60 104 -60q51 0 82.5 33.5t33.5 85.5h75q-1 -81 -53 -131.5t-134 -50.5q-59 0 -103 26q-26 15 -45 41.5t-25 56.5q-13 -60 -64 -92t-116 -32q-107 0 -162.5 76t-55.5 187q0 124 51 197q28 40 73.5 62.5t96.5 22.5q148 0 180 -122 q1 3 3 8.5t2 7.5q46 106 172 106q67 0 100 -22q38 -26 62 -70q26 -49 26 -152v-50zM475 301h245q11 174 -112 174q-63 0 -96.5 -53t-36.5 -121zM399 290q0 137 -73 172q-25 13 -62 13q-81 0 -117 -78q-23 -49 -23 -136t26 -137q17 -30 46 -49t62 -19q39 0 70.5 21.5 t48.5 58.5q22 47 22 154z" glyph-name="oe" horiz-adv-x="833" unicode="œ"/><glyph d="M497 482h-77q-2 87 -37 133.5t-117 46.5q-55 0 -91.5 -32.5t-36.5 -86.5q0 -48 36 -81q12 -11 79 -37l91 -35q28 -10 36 -13.5t28 -12.5t33 -18.5t26 -23.5q46 -49 46 -129q0 -56 -25 -102q-56 -103 -194 -103q-59 0 -105.5 25.5t-65.5 77.5v-91h-76v242h76 q2 -83 42.5 -134.5t120.5 -51.5q67 0 102 36q34 37 34 92q0 51 -24.5 75t-78.5 46l-115 45q-81 32 -119.5 69.5t-38.5 112.5q0 74 34 116q36 44 77.5 61.5t101.5 17.5q116 0 161 -79v68h77v-234zM278 831l82 101h65l-114 -138h-67l-112 138h64z" glyph-name="Scaron" unicode="Š"/><glyph d="M438 354h-63q-3 46 -18 73.5t-55 40.5q-27 9 -51 9q-48 0 -79.5 -23.5t-31.5 -69.5q0 -32 21 -47q7 -5 15 -8.5t15 -6t17.5 -5t16 -3.5t18 -3t16.5 -3q43 -7 69.5 -14.5t56.5 -23.5t44.5 -44t14.5 -68q0 -54 -14 -75q-59 -90 -157 -90q-61 0 -95 19t-63 71v-83h-63v180 h63q10 -69 48 -97q39 -29 91 -29q45 0 75.5 25.5t30.5 69.5q0 16 -4 28t-13.5 20.5t-17 14t-23.5 9.5l-24 6t-27.5 4.5t-24.5 3.5q-38 6 -64.5 14t-52 24t-38 43t-12.5 65q0 64 23 89q62 68 159 68q94 0 134 -68v52h63v-168zM250 637l82 101h65l-114 -138h-67l-112 138h64z" glyph-name="scaron" horiz-adv-x="500" unicode="š"/><glyph d="M486 0h-309v66h111v227l-221 357h-55v66h254v-66h-99l170 -280l169 280h-94v66h244v-66h-56l-225 -357v-227h111v-66zM281 889v-86h-90v86h90zM470 803h-90v86h90v-86z" glyph-name="Ydieresis" horiz-adv-x="667" unicode="Ÿ"/><glyph d="M569 0h-531v91l424 557h-337v-144h-80v212h516v-83l-429 -564h360v150h77v-219zM306 831l82 101h65l-114 -138h-67l-112 138h64z" glyph-name="Zcaron" horiz-adv-x="611" unicode="Ž"/><glyph d="M451 0h-402v68l305 395h-227v-107h-71v166h391v-67l-306 -392h240v116h70v-179zM250 637l82 101h65l-114 -138h-67l-112 138h64z" glyph-name="zcaron" horiz-adv-x="500" unicode="ž"/><glyph d="M236 412h-105l10 59h107l15 91q9 58 26 86q49 81 152 81q23 0 69 -10l-10 -60q-6 0 -20 2.5t-22 2.5q-55 0 -79.5 -25t-33.5 -82l-15 -86h116l-11 -59h-117l-75 -413q-16 -89 -55 -125q-49 -46 -116 -46q-33 0 -77 11l10 61q6 0 22.5 -3t24.5 -3q53 0 76.5 28.5 t33.5 85.5z" glyph-name="florin" unicode="ƒ"/><glyph d="M139 701l-82 -101h-64l112 138h67l114 -138h-65z" glyph-name="circumflex" horiz-adv-x="278" unicode="ˆ"/><glyph d="M139 637l82 101h65l-114 -138h-67l-112 138h64z" glyph-name="caron" horiz-adv-x="278" unicode="ˇ"/><glyph d="M269 638h-260v45h260v-45z" glyph-name="uni02C9" horiz-adv-x="278" unicode="ˉ"/><glyph d="M-4 731h39q7 -39 35.5 -60t69.5 -21q86 0 107 81h37q-7 -61 -47 -93.5t-102 -32.5q-59 0 -97 34t-42 92z" glyph-name="breve" horiz-adv-x="278" unicode="˘"/><glyph d="M184 705v-86h-90v86h90z" glyph-name="dotaccent" horiz-adv-x="278" unicode="˙"/><glyph d="M139 583q-41 0 -70.5 29.5t-29.5 70.5q0 40 30 69.5t70 29.5t69.5 -29.5t29.5 -69.5q0 -41 -29 -70.5t-70 -29.5zM139 749q-27 0 -46.5 -19.5t-19.5 -46.5t20 -46.5t46 -19.5t46 20t20 46t-19.5 46t-46.5 20z" glyph-name="ring" horiz-adv-x="278" unicode="˚"/><glyph d="M241 -130v-48q-28 -11 -55 -11q-45 0 -73 28t-28 73q0 48 40 88h47q-36 -27 -36 -64q0 -30 18 -53t47 -23q14 0 40 10z" glyph-name="ogonek" horiz-adv-x="278" unicode="˛"/><glyph d="M20 611h-36q5 41 28 69t60 28q26 0 75 -22.5t67 -22.5q6 0 16 4t13 9q11 12 15 37h38q-3 -39 -24 -68t-58 -29q-28 0 -78.5 24t-81.5 19q-23 -11 -34 -48z" glyph-name="tilde" horiz-adv-x="278" unicode="˜"/><glyph d="M30 600h-51l112 138h77zM162 600h-51l112 138h77z" glyph-name="hungarumlaut" horiz-adv-x="278" unicode="˝"/><glyph d="M197 65v3q-59 54 -97 135.5t-38 181.5q0 149 85.5 244.5t214.5 95.5q131 0 212 -99t81 -236q0 -103 -40 -187.5t-97 -134.5v-3h150v-65h-241v48q63 42 106 127t43 199q-1 70 -24 133.5t-73.5 107.5t-117.5 44q-99 0 -159.5 -82t-60.5 -205q0 -108 44 -196t105 -128v-48 h-242v65h149z" glyph-name="uni03A9" horiz-adv-x="718" unicode="Ω"/><glyph d="M419 0v100h-2q-17 -57 -52.5 -82t-98.5 -25q-22 0 -72 21q-17 7 -19 -18q0 -10 8 -82q4 -33 -8 -54.5t-32 -21.5q-44 0 -41 80q1 18 9.5 52.5t6.5 51.5q-1 12 -4.5 37.5t-4.5 35.5q-7 44 -7 70v298h-82v59h163v-320q0 -31 3.5 -53.5t13 -46.5t31 -36.5t53.5 -12.5 q37 0 67.5 19.5t46.5 53.5q21 43 21 126v211h-88v59h169v-459h83v-63h-164z" glyph-name="uni03BC" horiz-adv-x="611" unicode="μ"/><glyph d="M546 464h-80v-314q0 -99 15 -150h-76q-17 29 -17 143v321h-179q-4 -109 -25 -252t-48 -212h-76q27 79 47.5 217t24.5 247q-77 0 -111 -13l-12 53q44 28 145 28h400z" glyph-name="pi" horiz-adv-x="573" unicode="π"/><glyph d="M557 245h-557v63h557v-63z" glyph-name="endash" unicode="–"/><glyph d="M1000 245h-1000v63h1000v-63z" glyph-name="emdash" horiz-adv-x="1000" unicode="—"/><glyph d="M193 474h-105v100l47 142h58l-46 -142h46v-100z" glyph-name="quoteleft" horiz-adv-x="278" unicode="‘"/><glyph d="M83 616v100h105v-100l-46 -142h-59l47 142h-47z" glyph-name="quoteright" horiz-adv-x="278" unicode="’"/><glyph d="M88 0v100h105v-100l-47 -141h-58l47 141h-47z" glyph-name="quotesinglbase" horiz-adv-x="278" unicode="‚"/><glyph d="M233 573v-99h-105v99l47 143h58l-47 -143h47zM424 573v-99h-105v99l47 143h58l-47 -143h47z" glyph-name="quotedblleft" unicode="“"/><glyph d="M319 617v99h105v-99l-47 -143h-58l47 143h-47zM128 617v99h105v-99l-47 -143h-58l47 143h-47z" glyph-name="quotedblright" unicode="”"/><glyph d="M319 0v100h105v-100l-47 -141h-58l47 141h-47zM128 0v100h105v-100l-47 -141h-58l47 141h-47z" glyph-name="quotedblbase" unicode="„"/><glyph d="M237 450h-169v64h169v202h80v-202h169v-64h-169v-450h-80v450z" glyph-name="dagger" unicode="†"/><glyph d="M316 178v-178h-79v178h-172v63h172v239h-172v63h172v173h79v-173h171v-63h-171v-239h171v-63h-171z" glyph-name="daggerdbl" unicode="‡"/><glyph d="M459 536v-357h-318v357h318z" glyph-name="bullet" horiz-adv-x="600" unicode="•"/><glyph d="M218 101v-101h-102v101h102zM551 101v-101h-102v101h102zM884 101v-101h-102v101h102z" glyph-name="ellipsis" horiz-adv-x="1000" unicode="…"/><glyph d="M493 291q-74 0 -74 -136q0 -46 17 -80t58 -34q37 0 54 40t17 83q0 127 -72 127zM154 -12h-60l413 741h60zM168 677q-21 0 -38 -14.5t-25 -35.5q-11 -32 -11 -89q0 -111 75 -111q19 0 34 12.5t22.5 32.5t11 39.5t3.5 37.5q0 128 -72 128zM22 555q0 72 38.5 123t108.5 51 q72 0 106 -51t34 -127q0 -75 -37 -127t-109 -52q-64 0 -110 61q-31 40 -31 122zM347 170q0 78 43 127q41 46 104 46q73 0 106.5 -50.5t33.5 -127.5q0 -73 -35 -125t-105 -52q-74 0 -110.5 52t-36.5 130zM679 170q0 28 10 63q33 110 137 110q75 0 113 -59q27 -41 27 -119 q0 -73 -35 -125t-105 -52q-74 0 -110.5 52.5t-36.5 129.5zM825 291q-74 0 -74 -136q0 -46 17 -80t58 -34q37 0 54 40t17 83q0 127 -72 127z" glyph-name="perthousand" horiz-adv-x="1000" unicode="‰"/><glyph d="M142 59l-82 217l82 213h74l-82 -213l82 -217h-74z" glyph-name="guilsinglleft" horiz-adv-x="278" unicode="‹"/><glyph d="M137 489l82 -213l-82 -217h-74l82 217l-82 213h74z" glyph-name="guilsinglright" horiz-adv-x="278" unicode="›"/><glyph d="M-108 0h-58l441 729h58z" glyph-name="fraction" horiz-adv-x="167" unicode="⁄"/><glyph d="M525 175q-13 -95 -67.5 -141.5t-139.5 -46.5q-120 0 -182 107q-41 70 -52 177h-80l17 52h59q-1 12 -1 35q0 30 1 45h-76l17 52h64q12 94 48 158q65 115 177 115q50 0 86 -20.5t51 -53.5v68h76v-198h-76l-2 17q-7 58 -41.5 90.5t-90.5 32.5q-59 0 -94 -57.5t-45 -151.5 h261l-17 -52h-248q0 -6 -0.5 -17.5t-0.5 -17.5q0 -30 1 -45h224l-17 -52h-203q8 -96 43 -156t99 -60q55 0 85 34.5t38 85.5h86z" glyph-name="Euro" unicode="€"/><glyph d="M428 153l36 -33q-66 -127 -187 -127q-82 0 -123 53t-44 135v14q-8 -7 -17.5 -15t-21.5 -18l-18 -15l-24 46q58 48 80 70v279q0 128 45 186.5t111 58.5q61 0 93 -46t32 -119q0 -170 -206 -374v-35q1 -80 31.5 -118.5t77.5 -38.5q79 0 135 97zM184 547v-221 q152 172 152 295q0 107 -71 107q-33 0 -57 -43.5t-24 -137.5z" glyph-name="afii61289" horiz-adv-x="488" unicode="ℓ"/><glyph d="M846 716v-407h-63v350l-141 -350h-38l-138 350v-350h-64v407h104l116 -287l122 287h102zM330 716v-57h-129v-350h-71v350h-130v57h330z" glyph-name="trademark" horiz-adv-x="980" unicode="™"/><glyph d="M197 65v3q-59 54 -97 135.5t-38 181.5q0 149 85.5 244.5t214.5 95.5q131 0 212 -99t81 -236q0 -103 -40 -187.5t-97 -134.5v-3h150v-65h-241v48q63 42 106 127t43 199q-1 70 -24 133.5t-73.5 107.5t-117.5 44q-99 0 -159.5 -82t-60.5 -205q0 -108 44 -196t105 -128v-48 h-242v65h149z" glyph-name="Omega" horiz-adv-x="718" unicode="Ω"/><glyph d="M858 348h-667q-5 0 -5 -4v-202q0 -12 9 -23q105 -110 252 -110q77 0 146 33t119 90h59q-56 -66 -142 -104.5t-183 -38.5q-170 0 -290.5 108t-120.5 261q0 154 120.5 262.5t290.5 108.5q171 0 291.5 -108.5t120.5 -262.5v-10zM707 374v203q0 14 -10 24q-108 106 -250 106 q-145 0 -251 -109q-10 -10 -10 -25v-199q0 -6 5 -6h511q5 0 5 6z" glyph-name="estimated" horiz-adv-x="893" unicode="℮"/><glyph d="M102 687l-26 58q70 57 167 57q106 0 180.5 -100t74.5 -286q0 -189 -68.5 -306t-193.5 -117q-92 0 -142.5 69.5t-50.5 165.5q0 117 62.5 189.5t150.5 72.5q60 0 103.5 -31.5t60.5 -63.5h1q1 11 1 43q0 131 -54 214.5t-133 83.5q-73 0 -133 -49zM243 58h1q67 0 112.5 76 t55.5 183q-14 40 -52.5 74.5t-90.5 34.5q-62 0 -105.5 -58t-43.5 -140q0 -75 33.5 -122.5t89.5 -47.5z" glyph-name="partialdiff" horiz-adv-x="549" unicode="∂"/><glyph d="M31 0v53l250 680h90l246 -679v-54h-586zM111 64h422l-143 387q-7 23 -32.5 93t-32.5 96h-4q-6 -22 -29.5 -87.5t-30.5 -85.5z" glyph-name="Delta" horiz-adv-x="649" unicode="∆"/><glyph d="M674 642h-108v-741h-77v741h-277v-741h-77v741h-109v72h648v-72z" glyph-name="product" horiz-adv-x="702" unicode="∏"/><glyph d="M532 -99h-509v53l268 353l-256 352v55h481v-68h-374v-3l238 -325l-258 -339v-3h410v-75z" glyph-name="summation" horiz-adv-x="555" unicode="∑"/><glyph d="M584 327h-508v61h508v-61z" glyph-name="minus" horiz-adv-x="660" unicode="−"/><glyph d="M-108 0h-58l441 729h58z" glyph-name="uni2215" horiz-adv-x="167" unicode="∕"/><glyph d="M88 416h102v-101h-102v101z" glyph-name="uni2219" horiz-adv-x="278" unicode="∙"/><glyph d="M575 849l-223 -1001h-68l-160 473l-74 -28l-16 47l139 55l127 -377q12 -50 17 -75h1q0 3 14 76l185 830h58z" glyph-name="radical" horiz-adv-x="575" unicode="√"/><glyph d="M732 297v-1q0 -72 -45.5 -116.5t-108.5 -44.5q-46 0 -88 28t-97 91q-50 -58 -92.5 -88.5t-98.5 -30.5q-62 0 -106.5 45.5t-44.5 111.5q0 70 45 115.5t113 45.5q52 0 95.5 -31.5t91.5 -88.5q3 4 10 11q25 27 39 41t37.5 32.5t48.5 27t54 8.5q65 0 106 -43.5t41 -112.5z M209 183h1q12 0 24 3t21 7t21.5 13t19.5 14t19.5 17.5t16.5 17t17.5 19t15.5 17.5q-19 24 -27.5 34t-27.5 29.5t-32.5 28t-33.5 16t-41 7.5q-46 0 -73.5 -33.5t-26.5 -81.5q0 -45 30 -76.5t76 -31.5zM579 406h-1q-23 0 -49.5 -14.5t-39 -25.5t-39.5 -40.5t-28 -30.5 q57 -63 89 -87.5t70 -24.5q45 0 72.5 33.5t27.5 75.5q0 52 -28.5 83t-73.5 31z" glyph-name="infinity" horiz-adv-x="784" unicode="∞"/><glyph d="M345 859l-13 -55q-15 11 -36 11q-33 0 -51 -25q-34 -41 -34 -182q0 -79 7 -254t7 -259q0 -140 -43 -207q-32 -53 -102 -53q-40 0 -66 17l14 57q27 -12 45 -12q29 0 46 23q34 44 34 175q0 85 -6.5 262.5t-6.5 258.5q0 85 12 135.5t42 81.5q37 40 96 40q33 0 55 -14z" glyph-name="integral" horiz-adv-x="363" unicode="∫"/><glyph d="M486 440l32 -28q-48 -97 -130 -97q-28 0 -52 9.5t-65 33.5q-59 34 -94 34q-31 0 -53.5 -19.5t-45.5 -55.5l-33 27q23 45 59.5 71t79.5 26q17 0 35 -5t28 -9.5t28 -14.5t21 -12q4 -2 14 -8t14.5 -8t12.5 -6.5t13 -6t12.5 -3.5t14 -3t14.5 -1q29 0 51 18.5t44 57.5z M486 267l32 -28q-49 -96 -130 -96q-28 0 -51.5 9t-65.5 33q-62 35 -93 35q-32 0 -54 -19.5t-46 -56.5l-33 27q23 45 59.5 71t79.5 26q17 0 35.5 -5t27.5 -9t28 -14.5t21 -11.5q1 -1 13 -8t14 -8l12 -6t14 -6t12 -4t15 -3.5t15 -0.5q29 0 50.5 18t44.5 57z" glyph-name="approxequal" horiz-adv-x="565" unicode="≈"/><glyph d="M401 513l-45 -99h157v-50h-176l-68 -147h244v-51h-264l-54 -118l-40 18l46 100h-150v51h171l66 147h-237v50h257l53 116z" glyph-name="notequal" horiz-adv-x="565" unicode="≠"/><glyph d="M510 100l-453 228v53l453 228v-61l-399 -192v-2l399 -194v-60zM513 6h-462v52h462v-52z" glyph-name="lessequal" horiz-adv-x="565" unicode="≤"/><glyph d="M58 609l453 -228v-53l-453 -228v60l399 193v2l-399 193v61zM512 6h-460v52h460v-52z" glyph-name="greaterequal" horiz-adv-x="565" unicode="≥"/><glyph d="M521 357l-203 -403h-64l-199 403l202 402h64zM449 355l-141 283q-14 29 -19 54h-3q-11 -35 -20 -54l-140 -280l142 -285q11 -27 18 -53h4q7 30 17 52z" glyph-name="lozenge" horiz-adv-x="575" unicode="◊"/></font>
</defs>
</svg>
